<?xml version="1.0" encoding="utf-8"?>
<!-- Generator: Adobe Illustrator 18.1.1, SVG Export Plug-In . SVG Version: 6.00 Build 0)  -->
<svg version="1.1" id="图层_1" xmlns="http://www.w3.org/2000/svg" xmlns:xlink="http://www.w3.org/1999/xlink" x="0px" y="0px"
	 viewBox="0 0 1000 1000" enable-background="new 0 0 1000 1000" xml:space="preserve">
<g>
	<g>
		<path fill="#7F7F7F" d="M372.1,944.3c0-34.3,0-68.6,0-102.9c0-54.2,0-108.5,0-162.7c0-12.5,0-25,0-37.5c0-9.4-8.3-18.4-18-18
			c-9.8,0.4-18,7.9-18,18c0,34.3,0,68.6,0,102.9c0,54.2,0,108.5,0,162.7c0,12.5,0,25,0,37.5c0,9.4,8.3,18.4,18,18
			C363.9,961.8,372.1,954.3,372.1,944.3L372.1,944.3z"/>
	</g>
</g>
<g>
	<g>
		<path fill="#7F7F7F" d="M581.7,650.3c0,1.4,0,2.8-0.1,4.2c-0.1,1.5,0.6,4.8,0,0.7c0.3,2.2-1.2,5.8-1.9,7.9c-0.3,1-0.6,3-1.3,3.8
			c0.3-0.6,0.5-1.2,0.8-1.8c-0.4,0.8-0.7,1.6-1.1,2.4c-1.4,2.8-3,5.3-4.7,7.9c-2.3,3.7,2.6-2.7-0.4,0.5c-0.9,1-1.7,2-2.6,2.9
			c-1.8,1.9-3.8,3.6-5.8,5.3c3.6-3,0.2-0.2-0.6,0.3c-1.1,0.7-2.2,1.4-3.4,2.1c-1.1,0.7-2.3,1.3-3.5,1.9c-0.8,0.4-1.6,0.8-2.4,1.1
			c2.3-0.9,2.5-1.1,0.6-0.3c-2.6,0.8-5.1,1.6-7.8,2.2c-1,0.2-5.2,1.5-0.6,0.2c-1.2,0.4-2.9,0.3-4.2,0.3c-2.8,0.1-5.6,0-8.4-0.2
			c-4.6-0.2,3.8,0.9-0.7-0.1c-1.8-0.4-3.5-0.7-5.3-1.2c-1.3-0.4-2.5-0.8-3.8-1.2c-4.3-1.3,3.3,1.8-0.6-0.2c-2.4-1.2-4.7-2.4-6.9-3.8
			c-1.1-0.7-2.2-1.5-3.3-2.2c3.8,2.6,0.3,0.2-0.4-0.5c-2.3-2-4.3-4.3-6.4-6.5c-2.9-3.2,2,3.2-0.4-0.5c-0.7-1.1-1.5-2.2-2.2-3.3
			c-1.3-2.2-2.8-4.6-3.6-7c1.5,4.5,0.2,0.1-0.1-0.7c-0.4-1.3-0.8-2.6-1.1-3.9c-0.3-1.3-0.6-2.7-0.9-4c-0.3-2-0.3-1.8,0,0.7
			c-0.1-0.9-0.2-1.8-0.3-2.8c-0.2-2.8-0.2-5.6,0-8.4c0.1-1.5-0.6-4.8,0-0.7c-0.2-1.1,0.5-2.9,0.8-4c0.5-2,1-6.1,2.4-7.7
			c-0.3,0.6-0.5,1.2-0.8,1.8c0.4-0.8,0.7-1.6,1.1-2.4c0.8-1.6,1.6-3.1,2.5-4.6c0.7-1.1,1.5-2.2,2.2-3.3c2.3-3.7-2.6,2.7,0.4-0.5
			c1.8-1.9,3.5-3.9,5.4-5.7c1-0.9,2-1.7,3-2.6c-3.6,3-0.2,0.2,0.6-0.3c2.6-1.7,5.3-3.1,8-4.5c4-2-3.6,1.1,0.6-0.2
			c1.3-0.4,2.5-0.9,3.8-1.2c1.3-0.4,2.6-0.7,3.9-1c1-0.2,5.2-1.5,0.6-0.2c2.5-0.7,5.8-0.4,8.4-0.4c1.4,0,2.8,0.2,4.2,0.2
			c2.1,0.2,1.8,0.2-0.7-0.1c0.9,0.1,1.8,0.3,2.7,0.5c2.4,0.5,7.1,1,9,2.7c-0.6-0.3-1.2-0.5-1.8-0.8c0.8,0.4,1.6,0.7,2.4,1.1
			c1.6,0.8,3.1,1.6,4.6,2.5c1.1,0.7,2.2,1.5,3.3,2.2c1.6,1.2,1.4,1-0.5-0.5c0.7,0.5,1.4,1.1,2,1.7c2.3,2,4.3,4.3,6.4,6.5
			c2.9,3.2-2-3.2,0.4,0.5c0.9,1.5,1.9,2.9,2.8,4.4c0.7,1.1,1.3,2.3,1.9,3.5c0.4,0.8,0.8,1.6,1.1,2.4c-0.9-2.3-1.1-2.5-0.3-0.6
			c0.9,3,1.7,6,2.5,9.1c1.1,4.4-0.1-3.9,0.1,0.7C581.6,646.6,581.7,648.4,581.7,650.3c0.1,9.4,8.2,18.4,18,18
			c9.7-0.4,18.1-7.9,18-18c-0.4-33.2-21.2-61.9-52.2-73.4c-29.2-10.8-64.6-1.1-84.4,22.8c-21.1,25.4-25.1,61.9-7.7,90.6
			c17.2,28.4,50.2,42.1,82.5,36.1c35.9-6.7,61.5-40.2,61.9-76c0.1-9.4-8.4-18.4-18-18C589.9,632.8,581.9,640.2,581.7,650.3z"/>
	</g>
</g>
<g>
	<g>
		<path fill="#7F7F7F" d="M372.3,641.2c0-4.7,0.2-9.3,0.5-14c0.2-2.3,0.4-4.6,0.6-6.9c0.1-0.5,0.1-0.9,0.2-1.4
			c0.3-2.1,0.2-1.8-0.1,0.7c0.3-0.3,0.5-3.6,0.6-4.1c1.5-9.3,3.7-18.6,6.6-27.6c1.4-4.2,2.9-8.4,4.5-12.5c1.6-4.2-1.6,3.5,0.2-0.6
			c0.4-0.8,0.7-1.6,1.1-2.4c1.1-2.4,2.2-4.8,3.4-7.1c4.2-8.2,8.9-16.1,14.2-23.6c1.3-1.8,2.6-3.5,3.9-5.3c-2.9,3.9,1.4-1.8,2.1-2.5
			c3.1-3.7,6.3-7.3,9.6-10.7c3-3.1,6.2-6.2,9.4-9.1c1.6-1.5,3.3-2.9,4.9-4.3c0.8-0.7,1.7-1.4,2.5-2.1c0.8-0.6,4.8-3.7,1-0.8
			c7.4-5.5,15-10.6,23.1-15c3.9-2.1,7.8-4.1,11.8-6c1.1-0.5,7.3-3.7,3-1.4c2.3-1.2,5-2,7.4-2.9c9.7-3.5,19.7-6.2,29.8-8.1
			c2.7-0.5,5.4-1.1,8.1-1.3c-4.4,0.4-1.1,0.2,0,0c1.6-0.2,3.2-0.3,4.8-0.5c5.6-0.5,11.2-0.7,16.7-0.7c9.4,0,18.4-8.3,18-18
			c-0.4-9.7-7.9-18-18-18c-42.1,0.2-84.4,13-118.7,37.6c-34.4,24.7-60.3,58.5-75,98.1c-8.3,22.4-12.3,46.5-12.3,70.3
			c0,9.4,8.3,18.4,18,18C364.1,658.7,372.3,651.3,372.3,641.2L372.3,641.2z"/>
	</g>
</g>
<g>
	<g>
		<path fill="#7F7F7F" d="M540.9,471.1c4.7,0,9.3,0.2,14,0.5c2.3,0.2,4.6,0.4,6.9,0.6c0.5,0.1,0.9,0.1,1.4,0.2
			c2.1,0.3,1.8,0.2-0.7-0.1c0.3,0.3,3.6,0.5,4.1,0.6c9.3,1.5,18.6,3.7,27.6,6.6c4.2,1.4,8.4,2.9,12.5,4.5c4.2,1.6-3.5-1.6,0.6,0.2
			c0.8,0.4,1.6,0.7,2.4,1.1c2.4,1.1,4.8,2.2,7.1,3.4c8.2,4.2,16.1,8.9,23.6,14.2c1.8,1.3,3.5,2.6,5.3,3.9c-3.9-2.9,1.8,1.4,2.5,2.1
			c3.7,3.1,7.3,6.3,10.7,9.6c3.1,3,6.2,6.2,9.1,9.4c1.5,1.6,2.9,3.3,4.3,4.9c0.7,0.8,1.4,1.7,2.1,2.5c0.6,0.8,3.7,4.8,0.8,1
			c5.5,7.4,10.6,15,15,23.1c2.1,3.9,4.1,7.8,6,11.8c0.5,1.1,3.7,7.3,1.4,3c1.2,2.3,2,5,2.9,7.4c3.5,9.7,6.2,19.7,8.1,29.8
			c0.5,2.7,1.1,5.4,1.3,8.1c-0.4-4.4-0.2-1.1,0,0c0.2,1.6,0.3,3.2,0.5,4.8c0.5,5.6,0.7,11.2,0.7,16.7c0,9.4,8.3,18.4,18,18
			c9.7-0.4,18-7.9,18-18c-0.2-42.1-13-84.4-37.6-118.7c-24.7-34.4-58.5-60.3-98.1-75C589,439,564.9,435,541.1,435
			c-9.4,0-18.4,8.3-18,18C523.3,462.9,530.8,471.1,540.9,471.1L540.9,471.1z"/>
	</g>
</g>
<g>
	<g>
		<path fill="#7F7F7F" d="M352.2,823.8c-29.5,0-59.1,0-88.6,0c-4.3,0-8.5,0-12.8,0c-9.4,0-18.4,8.3-18,18c0.4,9.8,7.9,18,18,18
			c29.5,0,59.1,0,88.6,0c4.3,0,8.5,0,12.8,0c9.4,0,18.4-8.3,18-18C369.8,832,362.3,823.8,352.2,823.8L352.2,823.8z"/>
	</g>
</g>
<g>
	<g>
		<path fill="#7F7F7F" d="M364.8,931.7c-29.7-29.7-59.4-59.4-89.2-89.2c-4.3-4.3-8.5-8.5-12.8-12.8c-6.7-6.7-18.9-7.2-25.5,0
			s-7.1,18.3,0,25.5c29.7,29.7,59.4,59.4,89.2,89.2c4.3,4.3,8.5,8.5,12.8,12.8c6.7,6.7,18.9,7.2,25.5,0
			C371.4,949.9,371.9,938.8,364.8,931.7L364.8,931.7z"/>
	</g>
</g>
<g>
	<g>
		<path fill="#7F7F7F" d="M652.5,460.1c0.5,43.1,35.4,78,78.5,78.5c9.4,0.1,18.4-8.4,18-18c-0.4-9.8-7.9-17.9-18-18
			c-1.9,0-3.7-0.1-5.6-0.3c-3.1-0.2,0.7-0.1,0.7,0.1c0-0.1-2.5-0.4-2.7-0.5c-0.9-0.2-10.4-3-10.3-3.1c0.1-0.2,3.3,1.6,0.7,0.2
			c-0.8-0.4-1.6-0.8-2.4-1.2c-1.5-0.8-3.1-1.7-4.5-2.7c-0.7-0.5-1.4-1-2.2-1.5c-1.8-1.2-0.4-0.4,0.5,0.4c-1.4-1.4-3-2.6-4.4-4
			c-1.2-1.2-2.3-2.7-3.5-3.9c-1.7-1.6,1.7,2.5,0.4,0.6c-0.5-0.7-1-1.4-1.5-2.1c-1-1.5-1.9-3-2.7-4.5c-0.4-0.8-0.8-1.6-1.2-2.3
			c-0.2-0.4-1.6-3.1-0.5-0.9s-0.2-0.5-0.3-0.9c-0.3-0.8-0.6-1.7-0.9-2.5c-0.5-1.7-1-3.5-1.4-5.2c-0.2-0.9-0.3-1.8-0.5-2.7
			c-0.6-2.5,0.2,3.3,0.1,0.7c-0.1-2.1-0.3-4.2-0.3-6.3c-0.1-9.4-8.2-18.4-18-18C660.9,442.6,652.4,450,652.5,460.1L652.5,460.1z"/>
	</g>
</g>
<g>
	<g>
		<path fill="#7F7F7F" d="M537.9,823.8c-33.2,0-66.3,0-99.5,0c-4.8,0-9.6,0-14.4,0c-9.4,0-18.4,8.3-18,18c0.4,9.8,7.9,18,18,18
			c33.2,0,66.3,0,99.5,0c4.8,0,9.6,0,14.4,0c9.4,0,18.4-8.3,18-18C555.5,832,548,823.8,537.9,823.8L537.9,823.8z"/>
	</g>
</g>
<g>
	<g>
		<path fill="#7F7F7F" d="M710.9,650.1c0,4.9-0.2,9.9-0.6,14.8c-0.2,2.3-0.4,4.6-0.6,6.9c-0.1,1.1-0.2,2.3-0.4,3.4
			c0.8-4.9-0.1,0.3-0.3,1.4c-1.5,9.4-3.7,18.7-6.6,27.8c-1.4,4.5-3.1,8.9-4.8,13.2c-0.3,0.8-1.4,3.2,0.3-0.6
			c-0.5,1.2-1.1,2.4-1.6,3.7c-1.1,2.4-2.2,4.8-3.4,7.2c-4.2,8.3-8.9,16.2-14.2,23.8c-1.3,1.8-2.6,3.6-3.9,5.3
			c-1.9,2.6,0.1-0.1,0.4-0.5c-0.8,1-1.6,2.1-2.5,3.1c-3,3.7-6.2,7.3-9.5,10.8c-6.3,6.6-13.2,12.7-20.3,18.4c3.8-3.1-1.8,1.3-2.6,1.9
			c-1.8,1.3-3.6,2.5-5.4,3.7c-4,2.7-8.1,5.2-12.3,7.5c-3.8,2.1-7.7,4.2-11.7,6c-2,0.9-4,2-6,2.7c4.5-1.5,0.2-0.1-0.6,0.2
			c-1.2,0.5-2.5,1-3.7,1.4c-10,3.7-20.4,6.6-31,8.6c-2.7,0.5-5.4,1.1-8.1,1.3c4.2-0.3,1.7-0.2,0.7-0.1c-1.8,0.2-3.6,0.4-5.5,0.6
			c-5.5,0.5-11.1,0.7-16.7,0.7c-9.4,0-18.4,8.3-18,18s7.9,18,18,18c42.2-0.2,84.5-13.2,118.8-38c34.9-25.3,61.1-59.9,75.8-100.4
			c8.2-22.6,12.1-46.9,12.2-70.8c0-9.4-8.3-18.4-18-18C719.2,632.5,711,640,710.9,650.1L710.9,650.1z"/>
	</g>
</g>
</svg>
