<?xml version="1.0" encoding="utf-8"?>
<!-- Generator: Adobe Illustrator 19.0.0, SVG Export Plug-In . SVG Version: 6.00 Build 0)  -->
<svg version="1.1" id="图层_1" xmlns="http://www.w3.org/2000/svg" xmlns:xlink="http://www.w3.org/1999/xlink" x="0px" y="0px"
	 viewBox="61 97 383 307" style="enable-background:new 61 97 383 307;" xml:space="preserve">
<style type="text/css">
	.st0{fill:#7F7F7F;}
</style>
<g>
	<g>
		<path class="st0" d="M182.3,385.9c0-18.8,0-37.8,0-56.8c0-29.9,0-59.7,0-89.7c0-6.8,0-13.8,0-20.7c0-5.2-4.5-10.1-9.9-9.9
			c-5.4,0.2-9.9,4.4-9.9,9.9c0,18.8,0,37.8,0,56.8c0,29.9,0,59.7,0,89.7c0,6.8,0,13.8,0,20.7c0,5.2,4.5,10.1,9.9,9.9
			C177.7,395.6,182.3,391.4,182.3,385.9L182.3,385.9z"/>
	</g>
</g>
<g>
	<g>
		<path class="st0" d="M297.8,223.9c0,0.8,0,1.5,0,2.3c0,0.9,0.3,2.6,0,0.4c0.1,1.2-0.7,3.2-1.1,4.4c-0.1,0.6-0.3,1.7-0.7,2.1
			c0.1-0.3,0.2-0.7,0.4-1c-0.2,0.4-0.4,0.9-0.6,1.3c-0.8,1.5-1.7,2.9-2.6,4.4c-1.2,2.1,1.4-1.5-0.2,0.2c-0.6,0.6-1,1.1-1.4,1.7
			c-1,1.1-2.1,2-3.2,2.9c2-1.7,0.1-0.1-0.3,0.1c-0.6,0.4-1.2,0.8-1.9,1.1c-0.6,0.4-1.2,0.7-2,1.1c-0.4,0.2-0.9,0.4-1.3,0.6
			c1.2-0.6,1.3-0.6,0.3-0.1c-1.4,0.4-2.8,0.9-4.3,1.2c-0.6,0.1-2.9,0.9-0.3,0.1c-0.7,0.2-1.7,0.1-2.3,0.1c-1.5,0-3.1,0-4.6-0.1
			c-2.5-0.1,2.1,0.6-0.4,0c-1-0.2-2-0.4-2.9-0.7c-0.7-0.2-1.3-0.4-2.1-0.7c-2.3-0.7,1.8,1-0.3-0.1c-1.3-0.7-2.6-1.3-3.9-2.1
			c-0.6-0.4-1.2-0.9-1.8-1.2c2.1,1.4,0.1,0.1-0.2-0.2c-1.2-1.1-2.3-2.3-3.5-3.5c-1.5-1.8,1.1,1.8-0.2-0.2c-0.4-0.6-0.9-1.2-1.2-1.8
			c-0.7-1.2-1.5-2.5-2-3.9c0.9,2.4,0.1,0-0.1-0.4c-0.2-0.7-0.4-1.4-0.7-2.2c-0.1-0.7-0.3-1.5-0.4-2.2c-0.1-1.1-0.1-1,0,0.4
			c-0.1-0.6-0.1-1-0.1-1.5c-0.1-1.5-0.1-3.1,0-4.6c0.1-0.9-0.3-2.6,0-0.4c-0.1-0.6,0.2-1.7,0.4-2.2c0.2-1.1,0.6-3.3,1.3-4.3
			c-0.1,0.3-0.2,0.7-0.4,1c0.2-0.4,0.4-0.9,0.7-1.3c0.4-0.9,0.9-1.7,1.3-2.5c0.4-0.6,0.9-1.2,1.2-1.8c1.2-2.1-1.4,1.5,0.2-0.2
			c1-1.1,2-2.2,3-3.2c0.6-0.6,1.1-1,1.7-1.4c-2,1.7-0.1,0.1,0.3-0.1c1.4-1,2.9-1.7,4.4-2.4c2.2-1.1-2,0.6,0.3-0.1
			c0.7-0.2,1.3-0.6,2.1-0.7c0.7-0.2,1.4-0.4,2.2-0.6c0.6-0.1,2.9-0.9,0.3-0.1c1.3-0.4,3.2-0.2,4.6-0.2c0.8,0,1.5,0.1,2.3,0.1
			c1.1,0.1,1,0.1-0.4,0c0.6,0,1,0.1,1.5,0.2c1.3,0.2,3.9,0.6,5,1.5c-0.3-0.1-0.7-0.2-1-0.4c0.4,0.2,0.9,0.4,1.3,0.6
			c0.9,0.4,1.7,0.9,2.5,1.3c0.6,0.4,1.2,0.9,1.8,1.2c0.9,0.7,0.8,0.6-0.2-0.2c0.4,0.2,0.8,0.6,1.1,1c1.2,1.1,2.3,2.3,3.5,3.5
			c1.7,1.8-1.1-1.8,0.2,0.2c0.6,0.9,1.1,1.7,1.5,2.4c0.4,0.6,0.7,1.2,1.1,2c0.2,0.4,0.4,0.9,0.6,1.3c-0.6-1.2-0.6-1.3-0.1-0.3
			c0.6,1.7,1,3.3,1.3,5c0.6,2.4,0-2.2,0,0.4C297.7,221.9,297.8,222.9,297.8,223.9c0,5.2,4.5,10.1,9.9,9.9c5.4-0.2,9.9-4.4,9.9-9.9
			c-0.2-18.3-11.7-34.2-28.8-40.4c-16.1-6-35.6-0.6-46.5,12.6c-11.7,14-13.9,34.2-4.3,49.9c9.5,15.6,27.7,23.1,45.5,19.8
			c19.8-3.7,33.9-22.2,34.2-41.9c0-5.2-4.6-10.1-9.9-9.9C302.3,214.3,297.9,218.4,297.8,223.9z"/>
	</g>
</g>
<g>
	<g>
		<path class="st0" d="M182.3,218.9c0-2.6,0.1-5.1,0.2-7.7c0.1-1.2,0.2-2.5,0.3-3.9c0.1-0.2,0.1-0.6,0.1-0.8c0.1-1.1,0.1-1-0.1,0.4
			c0.1-0.1,0.2-2,0.3-2.2c0.9-5.1,2.1-10.2,3.6-15.2c0.8-2.3,1.5-4.6,2.4-6.8c0.9-2.3-0.9,2,0.1-0.3c0.2-0.4,0.4-0.9,0.7-1.3
			c0.7-1.3,1.2-2.6,1.9-3.9c2.3-4.5,4.8-8.8,7.8-13c0.7-1,1.4-2,2.1-2.9c-1.5,2.2,0.8-1,1.2-1.3c1.8-2.1,3.4-4,5.3-6
			c1.7-1.7,3.4-3.4,5.2-5c0.9-0.9,1.8-1.5,2.6-2.3c0.4-0.4,1-0.8,1.3-1.2c0.4-0.3,2.6-2.1,0.6-0.4c4.1-3.1,8.3-5.8,12.8-8.3
			c2.1-1.2,4.3-2.3,6.5-3.3c0.7-0.2,4-2.1,1.7-0.8c1.2-0.7,2.8-1.1,4.1-1.5c5.4-2,10.9-3.4,16.4-4.5c1.5-0.2,3-0.7,4.4-0.7
			c-2.4,0.2-0.6,0.1,0,0c0.9-0.1,1.8-0.1,2.6-0.2c3.1-0.2,6.2-0.4,9.3-0.4c5.2,0,10.1-4.5,9.9-9.9s-4.4-9.9-9.9-9.9
			c-23.3,0.1-46.5,7.2-65.5,20.7c-19,13.7-33.2,32.2-41.3,54.1c-4.5,12.3-6.7,25.6-6.7,38.7c0,5.2,4.5,10.1,9.9,9.9
			C177.9,228.6,182.3,224.4,182.3,218.9L182.3,218.9z"/>
	</g>
</g>
<g>
	<g>
		<path class="st0" d="M275.3,125.2c2.6,0,5.1,0.1,7.7,0.2c1.2,0.1,2.5,0.2,3.9,0.3c0.2,0.1,0.6,0.1,0.8,0.1c1.1,0.1,1,0.1-0.4-0.1
			c0.1,0.1,2,0.2,2.2,0.3c5.1,0.9,10.2,2.1,15.2,3.6c2.3,0.8,4.6,1.5,6.8,2.4c2.3,0.9-2-0.9,0.3,0.1c0.4,0.2,0.9,0.4,1.3,0.7
			c1.3,0.7,2.6,1.2,3.9,1.9c4.5,2.3,8.8,4.8,13,7.8c1,0.7,2,1.4,2.9,2.1c-2.2-1.5,1,0.8,1.3,1.2c2.1,1.8,4,3.5,6,5.3
			c1.7,1.7,3.4,3.4,5,5.2c0.9,0.9,1.7,1.8,2.3,2.8c0.4,0.4,0.8,1,1.1,1.3c0.3,0.4,2.1,2.6,0.4,0.6c3.1,4.1,5.8,8.3,8.3,12.7
			c1.1,2.2,2.2,4.3,3.3,6.5c0.2,0.6,2.1,4,0.8,1.7c0.7,1.2,1.1,2.8,1.7,4.1c2,5.4,3.4,10.9,4.4,16.4c0.2,1.5,0.6,3,0.7,4.4
			c-0.2-2.4-0.1-0.6,0,0c0.1,0.9,0.1,1.8,0.2,2.6c0.2,3.1,0.4,6.2,0.4,9.3c0,5.2,4.5,10.1,9.9,9.9s9.9-4.4,9.9-9.9
			c-0.1-23.1-7.2-46.5-20.7-65.5c-13.7-19-32.2-33.2-54-41.3c-12.3-4.6-25.6-6.8-38.7-6.8c-5.2,0-10.1,4.5-9.9,9.9
			C265.5,120.6,269.7,125.2,275.3,125.2L275.3,125.2z"/>
	</g>
</g>
<g>
	<g>
		<path class="st0" d="M171.3,319.5c-16.3,0-32.6,0-48.8,0c-2.3,0-4.6,0-7.1,0c-5.2,0-10.1,4.5-9.9,9.9c0.2,5.4,4.3,9.9,9.9,9.9
			c16.2,0,32.5,0,48.8,0c2.3,0,4.6,0,7.1,0c5.2,0,10.1-4.5,9.9-9.9C181,324.1,176.8,319.5,171.3,319.5L171.3,319.5z"/>
	</g>
</g>
<g>
	<g>
		<path class="st0" d="M178.2,379c-16.4-16.4-32.7-32.7-49.2-49.2c-2.3-2.3-4.6-4.6-7.1-7.1c-3.7-3.7-10.4-4-14.1,0s-4,10,0,14.1
			c16.4,16.4,32.7,32.7,49.2,49.2c2.3,2.3,4.6,4.6,7.1,7.1c3.7,3.7,10.4,4,14.1,0C181.8,389.1,182.1,382.9,178.2,379L178.2,379z"/>
	</g>
</g>
<g>
	<g>
		<path class="st0" d="M336.7,119.2c0.2,23.8,19.5,43,43.2,43.2c5.2,0,10.1-4.6,9.9-9.9c-0.2-5.4-4.4-9.8-9.9-9.9
			c-1.1,0-2.1-0.1-3.1-0.1c-1.7-0.1,0.4-0.1,0.4,0.1c0-0.1-1.3-0.2-1.5-0.2c-0.6-0.1-5.7-1.7-5.6-1.8c0-0.1,1.8,0.9,0.4,0.1
			c-0.4-0.2-0.9-0.4-1.3-0.7c-0.9-0.4-1.7-1-2.4-1.5c-0.4-0.2-0.8-0.6-1.2-0.9c-1-0.7-0.2-0.2,0.2,0.2c-0.8-0.8-1.7-1.4-2.4-2.2
			c-0.7-0.7-1.2-1.5-2-2.1c-1-0.9,1,1.3,0.2,0.3c-0.2-0.4-0.6-0.8-0.9-1.2c-0.6-0.9-1.1-1.7-1.5-2.4c-0.2-0.4-0.4-0.9-0.7-1.2
			c-0.1-0.2-0.9-1.8-0.2-0.4c0.7,1.3-0.1-0.2-0.1-0.4c-0.1-0.4-0.3-1-0.6-1.3c-0.2-1-0.6-2-0.8-2.9c-0.1-0.4-0.1-1-0.2-1.5
			c-0.3-1.3,0.1,1.8,0,0.4c0-1.2-0.1-2.3-0.1-3.4c0-5.2-4.5-10.1-9.9-9.9C341.4,109.5,336.7,113.6,336.7,119.2L336.7,119.2z"/>
	</g>
</g>
<g>
	<g>
		<path class="st0" d="M273.6,319.5c-18.3,0-36.5,0-54.9,0c-2.6,0-5.3,0-7.9,0c-5.2,0-10.1,4.5-9.9,9.9c0.2,5.4,4.3,9.9,9.9,9.9
			c18.3,0,36.6,0,54.8,0c2.6,0,5.3,0,7.9,0c5.2,0,10.1-4.5,9.9-9.9C283.3,324.1,279.2,319.5,273.6,319.5L273.6,319.5z"/>
	</g>
</g>
<g>
	<g>
		<path class="st0" d="M369,223.8c0,2.8-0.1,5.5-0.3,8.2c-0.1,1.2-0.2,2.5-0.3,3.9c0,0.6-0.1,1.2-0.2,1.9c0.4-2.8,0,0.1-0.1,0.8
			c-0.9,5.2-2.1,10.4-3.6,15.3c-0.8,2.4-1.7,5-2.6,7.3c-0.1,0.4-0.8,1.8,0.1-0.3c-0.2,0.7-0.6,1.3-0.9,2.1c-0.6,1.3-1.2,2.6-1.9,4
			c-2.3,4.5-5,8.9-7.8,13.1c-0.7,1-1.4,2-2.2,2.9c-1.1,1.4,0,0,0.2-0.2c-0.4,0.6-0.9,1.1-1.3,1.7c-1.7,2.1-3.4,4-5.3,6
			c-3.4,3.6-7.3,7.1-11.1,10.1c2.1-1.7-1,0.7-1.4,1.1c-1,0.7-2,1.3-3,2.1c-2.2,1.5-4.4,2.9-6.7,4.2c-2.1,1.1-4.3,2.3-6.5,3.3
			c-1.1,0.6-2.2,1.1-3.3,1.5c2.4-0.9,0.1,0-0.3,0.1c-0.7,0.2-1.3,0.6-2.1,0.8c-5.5,2.1-11.2,3.6-17.1,4.7c-1.5,0.2-3,0.6-4.4,0.7
			c2.3-0.1,1-0.1,0.4,0c-1,0.1-2,0.2-3.1,0.3c-3.1,0.2-6.1,0.4-9.3,0.4c-5.2,0-10.1,4.5-9.9,9.9c0.2,5.4,4.4,9.9,9.9,9.9
			c23.3-0.1,46.5-7.3,65.5-20.9c19.3-13.9,33.6-33.1,41.8-55.3c4.5-12.5,6.6-25.9,6.7-39c0-5.2-4.5-10.1-9.9-9.9
			C373.5,214.1,369,218.3,369,223.8L369,223.8z"/>
	</g>
</g>
</svg>
