<?xml version="1.0" encoding="utf-8"?>
<!-- Generator: Adobe Illustrator 19.0.0, SVG Export Plug-In . SVG Version: 6.00 Build 0)  -->
<svg version="1.1" id="图层_1" xmlns="http://www.w3.org/2000/svg" xmlns:xlink="http://www.w3.org/1999/xlink" x="0px" y="0px"
	 viewBox="81 81 334 334" style="enable-background:new 81 81 334 334;" xml:space="preserve">
<style type="text/css">
	.st0{fill:#FFE75A;}
	.st1{fill:#FFFFFF;}
	.st2{fill:#EF4836;}
	.st3{fill:#34495E;}
	.st4{fill:#67809F;}
	.st5{fill:none;}
	.st6{fill:#FFFFFF;stroke:#FFFFFF;stroke-width:10;stroke-miterlimit:10;}
	.st7{fill:#CF000F;}
	.st8{fill:none;stroke:#CF000F;stroke-miterlimit:10;}
</style>
<g>
	<circle class="st0" cx="248.2" cy="247.9" r="165.6"/>
</g>
<polygon class="st1" points="128.7,237.1 128.8,242.1 134.1,239.6 "/>
<polygon class="st1" points="133.5,235.2 134.1,239.6 140.1,238.2 "/>
<path class="st2" d="M131.8,221c27.1-61.2,81.2-81.6,123.2-67.1c4.8,1.6,22.5,8.1,34.9,26.1c23.4,34.4,17,134.1-13.5,155.4
	c-75.7,52.9-151.6-75.4-148.6-91.6c0.6-3.2,5.6-5.1,12.7-5.9"/>
<path class="st3" d="M358.1,249.3c-4.9-0.6-4.9-11.5,1.2-14.2c4-1.8,11.5-0.4,12.5,3.2C373.4,243.1,362.3,249.8,358.1,249.3z"/>
<path class="st3" d="M356.5,247.6c3.6-2.9,16.4,3.4,15.9,9.2c-0.3,3.8-6.4,8-11.2,6.6C354.5,261.6,353.5,250.1,356.5,247.6z"/>
<path class="st3" d="M207.1,152.1c0.8-3.9,9.1-0.1,27.7-12.2c10.6-6.9,40.3-1.4,44.2,0.4c3.9,1.7-9.7,5.8-4.2,15.5
	c5.9,10.4,13.2,5.6,12.5,9.1c-0.6,3.3-12,3.6-13.5,3.6C241.9,169.1,206,157.4,207.1,152.1z"/>
<path class="st4" d="M221.8,154.6c0.8-4.5,9.1-0.1,27.9-14.1c10.7-7.9,40.3-1.6,44.2,0.3c3.9,1.9-9.8,6.7-4.4,17.9
	c5.8,11.9,13.2,6.4,12.5,10.4c-0.7,3.8-12,4.1-13.5,4.2C256.5,174.1,220.7,160.7,221.8,154.6z"/>
<path class="st2" d="M180.3,168.5c1.4-1.9,1.5-5.2,3.7-6.1c19.7-8.2,48.1-19,79.2-11.1c15.7,4,51.9,7.9,78,45.8
	c9,13.1,15.8,35.3,15.1,57.9c-0.1,4.8,1.8,33-21.9,59c-30.8,34-76.2,45.6-117.4,30.8c-23.4-8.4-36.3-23.6-39.8-27.9
	c-6.9-8.5-21.7-25.9-25.7-53.1C144.7,216.4,172.4,179.8,180.3,168.5z"/>
<g>
	<path class="st5" d="M217.4,340.6"/>
</g>
<g>
	<path class="st5" d="M345.3,276"/>
</g>
<g>
	<path class="st5" d="M353.5,331.4"/>
</g>
<g>
	<path class="st5" d="M301.6,279.5"/>
</g>
<g>
	<path class="st5" d="M302.8,350.9"/>
</g>
<g>
	<path class="st5" d="M283,311.9"/>
</g>
<g>
	<path class="st5" d="M239,361.1"/>
</g>
<g>
	<path class="st5" d="M244.8,317.1"/>
</g>
<circle class="st6" cx="203" cy="217.5" r="16.1"/>
<circle class="st3" cx="203" cy="217.2" r="4.4"/>
<path class="st3" d="M206.2,342.8c0.5,0.9-0.9,2.5-3.6,5.6c-3.6,4.2-5.4,5.8-7.9,5.2c-2.1-0.5-4.7-1.9-4.4-4.2
	C191.1,343.6,204.9,340.6,206.2,342.8z"/>
<g>
	<path class="st7" d="M237.9,152.4c0,0,0.8,0.2,2.2,0.8s3.6,1.4,6.1,2.9c2.6,1.4,5.6,3.5,8.7,6.3c3.2,2.9,6.4,6.5,9.4,11.1
		c1.5,2.2,3,4.7,4.4,7.4c1.4,2.6,2.6,5.6,3.7,8.6c0.2,0.8,0.5,1.6,0.8,2.3s0.5,1.6,0.8,2.4c0.2,0.9,0.5,1.6,0.7,2.4
		c0.2,0.8,0.5,1.6,0.6,2.5c0.9,3.4,1.5,6.8,2.1,10.3c0.6,3.6,1,7.2,1.3,10.9s0.5,7.4,0.5,11.2s-0.1,7.6-0.5,11.4
		c-0.2,3.9-0.7,7.6-1.2,11.4c-1.1,7.6-2.8,15.1-5,22.1c-2.2,7.1-5,13.9-8.1,20c-1.6,3-3.4,6-5.1,8.8c-0.5,0.6-1,1.4-1.4,2
		c-0.2,0.4-0.5,0.6-0.7,1l-0.7,1c-0.9,1.2-1.9,2.5-2.9,3.6c-2,2.3-4.1,4.5-6.1,6.4c-2.1,1.9-4.2,3.5-6.4,5c-4.2,2.9-8.5,4.8-12.3,6
		c-3.9,1.2-7.2,1.8-10.1,2c-2.9,0.2-5.1,0-6.6,0c-1.5-0.2-2.3-0.3-2.3-0.3s0.8,0.1,2.3,0.2c1.5,0,3.7,0,6.5-0.4s6.1-1,9.9-2.5
		c3.7-1.4,7.8-3.4,11.9-6.4c4.1-2.9,8.1-6.8,11.9-11.4c0.9-1.2,1.9-2.4,2.8-3.6l0.7-1c0.2-0.3,0.4-0.6,0.7-1c0.5-0.6,0.9-1.3,1.3-2
		c1.7-2.7,3.4-5.6,4.9-8.6s3-6.2,4.2-9.5c0.4-0.9,0.6-1.6,1-2.5c0.3-0.9,0.6-1.6,0.9-2.5s0.6-1.7,0.9-2.5c0.2-0.9,0.5-1.7,0.8-2.6
		c2.1-7,3.8-14.3,4.8-21.6c0.5-3.7,1-7.4,1.2-11.1c0.3-3.7,0.5-7.4,0.5-11.1s0-7.4-0.4-10.9c-0.2-3.6-0.6-7.2-1.1-10.6
		c-0.5-3.5-1.1-6.9-2-10.1c-0.2-0.9-0.4-1.6-0.6-2.4c-0.2-0.8-0.5-1.6-0.6-2.4c-0.2-0.8-0.5-1.6-0.7-2.3s-0.5-1.6-0.8-2.2
		c-2-5.9-4.6-11.4-7.5-15.8c-2.9-4.6-6-8.2-8.9-11.1c-3-2.9-5.9-5.1-8.4-6.6c-2.4-1.6-4.5-2.6-5.9-3.2
		C238.6,152.7,237.9,152.4,237.9,152.4z"/>
</g>
<path class="st4" d="M212.4,339.1c-0.2-2.6,20-12.2,29.8-3.1c4.8,4.5,5.1,11.5,5.1,12.4c0.1,4.5-1.3,10.5-3.6,10.8
	c-1.8,0.2-2.5-3.1-4.6-7c-1.1-2.1-2.6-4.4-4.8-6.4C225.6,337.6,212.6,341.2,212.4,339.1z"/>
<path class="st8" d="M131.8,222.9"/>
<g>
	<path class="st7" d="M271.1,174.4c0,0,0.2-0.1,0.6-0.2c0.4-0.1,1-0.3,1.8-0.4c0.8-0.1,1.8-0.3,2.9-0.4c1.1-0.1,2.4-0.1,3.8,0.1
		c0.7,0.1,1.4,0.2,2.1,0.4c0.4,0.1,0.8,0.2,1.1,0.3c0.4,0.1,0.8,0.2,1.1,0.4c1.5,0.6,3.1,1.2,4.5,2.3s2.8,2.4,3.8,4.1l0.1,0.1v0.1
		v0.1l0,0v0.1l0.1,0.3c0.1,0.2,0.2,0.4,0.3,0.6l0.3,0.7l0.2,0.7c0.3,0.9,0.5,1.9,0.7,2.8c0.3,1.9,0.2,3.9-0.1,5.7
		c-0.3,1.9-0.9,3.6-1.6,5.2c-0.8,1.6-1.6,3.1-2.6,4.3s-2,2.3-3.1,3.2c-1,0.9-2.1,1.6-3.1,2.1c-0.5,0.3-1,0.5-1.4,0.7
		c-0.5,0.2-0.9,0.4-1.2,0.5c-0.8,0.3-1.3,0.5-1.8,0.6c-0.4,0.1-0.6,0.2-0.6,0.2s0.2-0.1,0.5-0.3c0.2-0.1,0.4-0.2,0.6-0.4
		c0.2-0.1,0.5-0.4,0.9-0.6s0.7-0.4,1-0.7c0.4-0.3,0.8-0.6,1.2-0.9c0.9-0.6,1.8-1.4,2.6-2.4s1.8-2,2.6-3.2c0.8-1.2,1.5-2.6,2.1-4.1
		s1-3.1,1.2-4.6c0.1-0.8,0.2-1.6,0.2-2.4s0-1.6-0.2-2.4c-0.1-0.8-0.3-1.6-0.5-2.4L291,184l-0.2-0.5c0-0.1-0.2-0.4-0.3-0.6l-0.1-0.3
		v-0.1l0,0c0,0,0,0.1,0,0v-0.1l-0.1-0.1c-0.8-1.4-1.9-2.6-3.1-3.6s-2.5-1.8-3.9-2.4c-1.4-0.6-2.6-1.1-4-1.3c-0.3-0.1-0.6-0.1-1-0.2
		c-0.3-0.1-0.6-0.1-0.9-0.1c-0.6-0.1-1.1-0.1-1.7-0.2c-1-0.1-2-0.1-2.8-0.1s-1.4,0.1-1.8,0.1C271.4,174.4,271.1,174.4,271.1,174.4z"
		/>
</g>
<g>
	<path class="st7" d="M296.6,195.6c0,0,0.2-0.1,0.6-0.2c0.4-0.1,1-0.3,1.8-0.4c0.8-0.1,1.8-0.3,2.9-0.4c1.1-0.1,2.4-0.1,3.8,0.1
		c0.7,0.1,1.4,0.2,2.1,0.4c0.4,0.1,0.8,0.2,1.1,0.3c0.4,0.1,0.8,0.2,1.1,0.4c1.5,0.6,3.1,1.2,4.5,2.3s2.8,2.4,3.8,4.1l0.1,0.1v0.1
		v0.1l0,0v0.1l0.1,0.3c0.1,0.2,0.2,0.4,0.3,0.6l0.3,0.7l0.2,0.7c0.3,0.9,0.5,1.9,0.7,2.8c0.3,1.9,0.2,3.9-0.1,5.7
		c-0.3,1.9-0.9,3.6-1.6,5.2c-0.8,1.6-1.6,3.1-2.6,4.3s-2,2.3-3.1,3.2c-1,0.9-2.1,1.6-3.1,2.1c-0.5,0.3-1,0.5-1.4,0.7
		c-0.5,0.2-0.9,0.4-1.2,0.5c-0.8,0.3-1.3,0.5-1.8,0.6c-0.4,0.1-0.6,0.2-0.6,0.2s0.2-0.1,0.5-0.3c0.2-0.1,0.4-0.2,0.6-0.4
		c0.2-0.1,0.5-0.4,0.9-0.6s0.7-0.4,1-0.7c0.4-0.3,0.8-0.6,1.2-0.9c0.9-0.6,1.8-1.4,2.6-2.4s1.8-2,2.6-3.2c0.8-1.2,1.5-2.6,2.1-4.1
		s1-3.1,1.2-4.6c0.1-0.8,0.2-1.6,0.2-2.4s0-1.6-0.2-2.4c-0.1-0.8-0.3-1.6-0.5-2.4l-0.2-0.6l-0.2-0.5c0-0.1-0.2-0.4-0.3-0.6l-0.1-0.3
		v-0.1l0,0c0,0,0,0.1,0,0v-0.1l-0.1-0.1c-0.8-1.4-1.9-2.6-3.1-3.6s-2.5-1.8-3.9-2.4c-1.4-0.6-2.6-1.1-4-1.3c-0.3-0.1-0.6-0.1-1-0.2
		c-0.3-0.1-0.6-0.1-0.9-0.1c-0.6-0.1-1.1-0.1-1.7-0.2c-1-0.1-2-0.1-2.8-0.1s-1.4,0.1-1.8,0.1C296.8,195.6,296.6,195.6,296.6,195.6z"
		/>
</g>
<g>
	<path class="st7" d="M304.9,237.7c0,0,0.2,0.1,0.6,0.1s1,0.1,1.8,0.4c0.8,0.2,1.7,0.5,2.7,0.9s2.1,0.9,3.3,1.8
		c0.6,0.4,1.2,0.8,1.8,1.2c0.2,0.2,0.5,0.5,0.9,0.8c0.3,0.3,0.5,0.6,0.9,0.9c1.1,1.1,2.2,2.5,3,4.1c0.9,1.6,1.4,3.4,1.6,5.4v0.2v0.1
		v0.1l0,0v0.1v0.4c0,0.2,0,0.4,0,0.7v0.8l-0.1,0.7c-0.1,1-0.3,2-0.6,2.8c-0.6,1.8-1.5,3.5-2.6,5s-2.4,2.9-3.8,3.9
		c-1.4,1.1-2.9,2-4.2,2.6c-1.5,0.7-2.9,1.1-4.2,1.5c-1.4,0.3-2.6,0.5-3.7,0.5c-0.5,0.1-1,0.1-1.5,0.1s-0.9,0-1.3-0.1
		c-0.8-0.1-1.4-0.1-1.9-0.2c-0.4,0-0.6-0.1-0.6-0.1s0.2,0,0.6,0c0.2,0,0.5,0,0.8,0s0.6,0,1-0.1c0.4,0,0.8-0.1,1.3-0.1
		c0.5-0.1,1-0.1,1.5-0.2c1-0.2,2.2-0.5,3.5-1c1.2-0.4,2.5-1,3.8-1.8c1.3-0.7,2.5-1.6,3.7-2.7c1.2-1,2.3-2.2,3.2-3.6
		c0.5-0.7,0.9-1.4,1.2-2.1c0.4-0.8,0.6-1.5,1-2.3c0.3-0.8,0.4-1.6,0.5-2.4v-0.6v-0.6c0-0.1,0-0.4,0-0.6v-0.4v-0.1l0,0c0,0,0,0.1,0,0
		l0,0v-0.1c-0.1-1.6-0.5-3.1-1.1-4.6c-0.6-1.4-1.5-2.7-2.4-3.9c-0.9-1.1-2-2.1-3-2.9c-0.2-0.2-0.5-0.4-0.8-0.6s-0.5-0.4-0.8-0.6
		c-0.5-0.4-1-0.6-1.4-0.9c-0.9-0.5-1.8-1-2.5-1.3c-0.7-0.4-1.2-0.6-1.6-0.7C305,237.8,304.9,237.7,304.9,237.7z"/>
</g>
<g>
	<path class="st7" d="M299.9,283.9c0,0,0.2,0.1,0.6,0.3c0.4,0.2,1,0.5,1.6,0.9c0.7,0.4,1.5,1,2.4,1.6s1.8,1.5,2.7,2.6
		c0.5,0.5,0.9,1.1,1.4,1.7c0.2,0.3,0.4,0.6,0.6,1c0.2,0.3,0.4,0.6,0.6,1c0.8,1.4,1.4,3,1.8,4.8s0.4,3.6,0,5.5v0.2l0,0l0,0l0,0v0.1
		l-0.1,0.3c0,0.2-0.1,0.4-0.2,0.6l-0.2,0.7l-0.3,0.6c-0.4,0.9-0.9,1.8-1.4,2.5c-1.1,1.6-2.5,3-3.9,4.1c-1.5,1.1-3.1,2-4.7,2.7
		c-1.6,0.6-3.3,1.1-4.9,1.4c-1.6,0.2-3.1,0.3-4.5,0.2c-1.4-0.1-2.6-0.2-3.7-0.5c-0.5-0.1-1-0.2-1.5-0.4s-0.9-0.3-1.2-0.5
		c-0.8-0.3-1.3-0.5-1.7-0.8s-0.6-0.3-0.6-0.3s0.2,0,0.6,0.1c0.2,0,0.5,0.1,0.8,0.2c0.3,0,0.6,0.1,1,0.2c0.4,0,0.8,0.1,1.2,0.2
		s1,0.1,1.5,0.1c1,0.1,2.2,0.1,3.5,0s2.7-0.2,4.1-0.6c1.5-0.4,2.9-0.9,4.3-1.5c1.5-0.6,2.9-1.5,4.1-2.5c0.6-0.5,1.2-1.1,1.8-1.7
		s1.1-1.2,1.5-1.9s0.9-1.4,1.2-2.1l0.2-0.5l0.2-0.5c0-0.1,0.1-0.4,0.2-0.6l0.1-0.3v0.2l0,0l0,0l0,0v-0.1c0.4-1.5,0.4-3.1,0.1-4.7
		c-0.2-1.5-0.6-3-1.2-4.4s-1.2-2.5-2-3.6c-0.2-0.2-0.4-0.5-0.5-0.8s-0.4-0.5-0.5-0.7c-0.4-0.5-0.8-0.9-1.1-1.3c-0.8-0.8-1.4-1.5-2-2
		c-0.5-0.5-1-0.9-1.4-1.1C300,284,299.9,283.9,299.9,283.9z"/>
</g>
<g>
	<path class="st7" d="M321.5,265.8c0,0,0.1,0,0.5,0c0.3,0,0.8,0,1.4,0.2c0.6,0.1,1.3,0.3,2,0.5c0.8,0.3,1.6,0.6,2.5,1.1
		c0.5,0.2,0.9,0.5,1.4,0.9s0.9,0.7,1.4,1.1c0.9,0.8,1.8,1.8,2.4,3c0.7,1.1,1.2,2.5,1.4,4v0.1l0,0c0,0,0,0,0,0.1l0,0l0,0v0.2v0.5v0.5
		v0.6c0,0.4,0,0.8-0.1,1.1l-0.2,1c-0.5,1.4-1,2.8-1.9,3.9c-0.4,0.6-0.9,1.1-1.3,1.6c-0.2,0.2-0.5,0.5-0.7,0.7s-0.5,0.5-0.8,0.6
		c-0.5,0.4-1,0.9-1.5,1.1c-0.2,0.1-0.5,0.4-0.8,0.5s-0.5,0.3-0.8,0.4c-0.2,0.1-0.5,0.2-0.8,0.4c-0.2,0.1-0.5,0.2-0.8,0.3
		c-0.5,0.2-1,0.4-1.5,0.5c-0.2,0-0.5,0.1-0.8,0.1s-0.5,0.1-0.7,0.1c-0.5,0-0.9,0.1-1.3,0.1c-0.9,0-1.5,0-2.1,0
		c-1.1-0.1-1.8-0.2-1.8-0.2s0.6-0.1,1.8-0.2c0.3,0,0.6-0.1,0.9-0.2c0.4-0.1,0.7-0.1,1-0.2s0.8-0.2,1.2-0.4c0.4-0.1,0.9-0.3,1.2-0.5
		c0.5-0.1,0.9-0.4,1.3-0.6c0.2-0.1,0.5-0.2,0.7-0.4c0.2-0.1,0.5-0.3,0.6-0.5c0.2-0.1,0.5-0.2,0.6-0.5c0.2-0.1,0.5-0.4,0.6-0.5
		c0.5-0.3,0.9-0.8,1.2-1.1c0.2-0.2,0.4-0.4,0.6-0.6s0.4-0.4,0.6-0.6c0.1-0.2,0.4-0.5,0.5-0.7c0.1-0.1,0.2-0.2,0.2-0.4l0.2-0.4
		c0.1-0.2,0.3-0.5,0.5-0.8l0.4-0.8c0.1-0.2,0.2-0.5,0.4-0.8c0.1-0.3,0.2-0.5,0.3-0.9l0.2-0.9c0-0.3,0-0.5,0.1-0.8v-0.4v-0.5v-0.5
		v-0.2l0,0l0,0c0,0.1,0,0,0,0l0,0v-0.1c-0.1-1.1-0.5-2.2-1-3.2s-1.1-1.9-1.8-2.7c-0.7-0.8-1.4-1.5-2.1-2.1c-0.2-0.1-0.4-0.3-0.5-0.5
		c-0.2-0.1-0.4-0.2-0.5-0.4c-0.4-0.2-0.7-0.5-1-0.6c-0.7-0.4-1.3-0.7-1.8-1s-1-0.4-1.2-0.5C321.7,265.9,321.5,265.8,321.5,265.8z"/>
</g>
<g>
	<path class="st7" d="M321.4,223.6c0,0,0.1,0,0.5-0.1c0.3-0.1,0.8-0.1,1.4-0.1s1.3,0,2.1,0.1c0.8,0.1,1.8,0.2,2.8,0.6
		c0.5,0.1,1,0.4,1.5,0.6c0.5,0.2,1,0.4,1.5,0.8c1,0.6,2.1,1.4,3,2.4s1.7,2.2,2.2,3.6v0.1v0.1c0,0.1,0-0.1,0,0.1l0,0v0.1v0.2l0.1,0.4
		l0.1,0.4l0.1,0.6c0,0.4,0.1,0.8,0.1,1.1v1.1c-0.1,1.4-0.4,2.9-1,4.2c-0.2,0.6-0.6,1.2-0.9,1.9c-0.1,0.3-0.4,0.6-0.5,0.9
		c-0.2,0.3-0.4,0.6-0.6,0.8c-0.5,0.5-0.8,1.1-1.3,1.4c-0.2,0.2-0.5,0.4-0.6,0.6c-0.2,0.2-0.5,0.4-0.7,0.6c-0.2,0.2-0.5,0.4-0.7,0.6
		c-0.2,0.1-0.5,0.3-0.7,0.4c-0.5,0.3-1,0.6-1.4,0.8c-0.2,0.1-0.5,0.2-0.7,0.4c-0.2,0.1-0.5,0.2-0.6,0.3c-0.5,0.1-0.9,0.3-1.2,0.4
		c-0.8,0.2-1.5,0.4-2.1,0.4c-1.1,0.1-1.9,0.1-1.9,0.1s0.6-0.2,1.7-0.6c0.2-0.1,0.5-0.2,0.9-0.4c0.3-0.1,0.6-0.2,1-0.4
		s0.7-0.4,1.1-0.6c0.4-0.2,0.8-0.5,1.1-0.8s0.8-0.6,1.1-0.9c0.2-0.1,0.4-0.3,0.6-0.5s0.4-0.4,0.5-0.6c0.2-0.2,0.4-0.4,0.5-0.6
		c0.1-0.2,0.4-0.4,0.5-0.6c0.4-0.4,0.6-0.9,1-1.4c0.2-0.2,0.3-0.5,0.5-0.8c0.1-0.2,0.3-0.5,0.5-0.8c0.1-0.2,0.2-0.6,0.4-0.8
		c0-0.1,0.1-0.2,0.2-0.4l0.1-0.4c0.1-0.3,0.2-0.6,0.3-0.9l0.2-0.9c0.1-0.3,0.1-0.6,0.1-0.9c0-0.3,0.1-0.6,0.1-0.9V235
		c0-0.3,0-0.6,0-0.8v-0.4l-0.1-0.5l-0.1-0.5v-0.2v-0.1l0,0c0,0.1,0,0.1,0,0.1l0,0v-0.1c-0.4-1.1-0.9-2.1-1.6-2.9s-1.5-1.6-2.4-2.2
		s-1.7-1.1-2.5-1.6c-0.2-0.1-0.4-0.2-0.6-0.3s-0.4-0.1-0.6-0.2c-0.4-0.2-0.8-0.3-1.1-0.4c-0.8-0.2-1.4-0.4-2-0.6
		c-0.5-0.1-1-0.2-1.3-0.2C321.5,223.6,321.4,223.6,321.4,223.6z"/>
</g>
<g>
	<path class="st7" d="M281.2,216.1c0,0,0.2,0,0.6,0s1-0.1,1.8,0.1c0.8,0.1,1.8,0.2,2.9,0.4s2.3,0.6,3.6,1.1c0.6,0.2,1.3,0.6,2,0.9
		c0.4,0.2,0.6,0.4,1,0.6c0.4,0.2,0.6,0.4,1,0.6c1.3,0.9,2.6,2.1,3.7,3.5s2,3.1,2.5,4.9v0.1v0.1v0.1l0,0v0.1v0.3
		c0,0.2,0.1,0.4,0.1,0.7l0.1,0.8v0.7c0,0.9,0,1.9-0.1,2.9c-0.2,1.9-0.9,3.8-1.6,5.4s-1.9,3.2-3,4.6s-2.5,2.4-3.8,3.4
		c-1.3,0.9-2.6,1.6-3.9,2.2s-2.5,0.9-3.5,1.2c-0.5,0.1-1,0.2-1.5,0.3s-0.9,0.1-1.3,0.1c-0.8,0.1-1.4,0.1-1.9,0.1c-0.4,0-0.6,0-0.6,0
		s0.2-0.1,0.6-0.1c0.2-0.1,0.5-0.1,0.8-0.1c0.3-0.1,0.6-0.1,1-0.2s0.8-0.2,1.2-0.4c0.5-0.1,0.9-0.3,1.4-0.5c1-0.4,2-0.9,3.2-1.6
		c1.1-0.6,2.2-1.4,3.4-2.4c1.1-0.9,2.2-2.1,3.2-3.3s1.9-2.6,2.5-4.1c0.4-0.8,0.6-1.5,0.9-2.3c0.2-0.8,0.4-1.6,0.5-2.4
		c0.1-0.8,0.1-1.6,0.1-2.4v-0.6v-0.6c0-0.2,0-0.4-0.1-0.6v-0.3v-0.1l0,0c0,0,0,0.1,0,0v-0.1v-0.1c-0.4-1.6-1.1-3-2-4.2
		c-0.9-1.3-2-2.4-3-3.3c-1.1-0.9-2.3-1.7-3.4-2.4c-0.3-0.1-0.5-0.3-0.9-0.4s-0.5-0.2-0.9-0.4c-0.5-0.3-1-0.4-1.5-0.6
		c-1-0.4-1.9-0.6-2.6-0.9c-0.8-0.2-1.4-0.4-1.8-0.4C281.4,216.1,281.2,216.1,281.2,216.1z"/>
</g>
<g>
	<path class="st7" d="M282.6,258.7c0,0,0.2,0,0.6,0.2c0.4,0.1,1,0.4,1.7,0.7c0.8,0.3,1.6,0.8,2.5,1.4s2,1.3,3,2.2
		c0.5,0.5,1,1,1.5,1.5c0.2,0.3,0.5,0.6,0.8,0.9s0.5,0.6,0.7,1c0.9,1.3,1.8,2.8,2.3,4.5s0.9,3.6,0.7,5.5v0.2l0,0l0,0l0,0v0.1v0.4
		c0,0.2,0,0.4-0.1,0.7l-0.1,0.8l-0.2,0.7c-0.3,1-0.6,1.9-1.1,2.7c-0.9,1.7-2,3.2-3.4,4.5s-2.8,2.4-4.4,3.2s-3.1,1.5-4.6,1.9
		c-1.5,0.5-3,0.6-4.4,0.8c-1.4,0.1-2.6,0-3.8-0.1c-0.5,0-1-0.1-1.5-0.2s-0.9-0.2-1.3-0.3c-0.8-0.2-1.4-0.4-1.8-0.5s-0.6-0.2-0.6-0.2
		s0.2,0,0.6,0c0.2,0,0.5,0,0.8,0.1c0.3,0,0.6,0,1,0.1c0.4,0,0.8,0,1.3,0s1,0,1.5,0c1,0,2.2-0.1,3.5-0.4s2.6-0.6,4-1.1s2.8-1.2,4.1-2
		s2.6-1.9,3.8-3c0.5-0.6,1.1-1.2,1.6-1.9c0.5-0.6,0.9-1.4,1.3-2.1s0.7-1.5,1-2.2l0.1-0.6l0.1-0.5c0-0.1,0-0.4,0.1-0.6v-0.4v-0.1l0,0
		l0,0l0,0v-0.1c0.1-1.6,0-3.1-0.4-4.6s-1-2.9-1.8-4.1s-1.5-2.4-2.4-3.4c-0.2-0.2-0.4-0.5-0.6-0.7s-0.5-0.5-0.6-0.6
		c-0.4-0.5-0.9-0.8-1.2-1.1c-0.8-0.7-1.5-1.2-2.2-1.7s-1.1-0.8-1.5-1C282.9,258.8,282.6,258.7,282.6,258.7z"/>
</g>
<g>
	<path class="st7" d="M270.7,298.6c0,0,0.1,0.1,0.5,0.4c0.3,0.3,0.8,0.6,1.4,1.2c0.5,0.5,1.2,1.3,1.9,2.1c0.6,0.9,1.4,2,2,3.2
		c0.4,0.6,0.6,1.3,0.9,2c0.1,0.4,0.2,0.7,0.4,1.1c0.1,0.4,0.2,0.8,0.3,1.1c0.4,1.5,0.6,3.2,0.5,5s-0.5,3.6-1.3,5.4v0.1l0,0l0,0l0,0
		l0,0l-0.1,0.3c-0.1,0.2-0.2,0.4-0.4,0.6l-0.4,0.6l-0.5,0.6c-0.6,0.8-1.2,1.5-2,2.1c-1.5,1.3-3.1,2.3-4.8,3
		c-1.7,0.8-3.5,1.2-5.2,1.5s-3.5,0.2-5,0.1s-3.1-0.5-4.4-0.9c-1.3-0.4-2.5-0.9-3.4-1.4c-0.5-0.2-0.9-0.5-1.4-0.8
		c-0.4-0.2-0.8-0.5-1.1-0.7c-0.6-0.5-1.1-0.9-1.4-1.1s-0.5-0.4-0.5-0.4s0.2,0.1,0.6,0.3c0.2,0.1,0.4,0.2,0.7,0.4
		c0.2,0.1,0.6,0.3,0.9,0.5c0.4,0.1,0.8,0.3,1.2,0.5c0.4,0.1,0.9,0.4,1.4,0.5c1,0.4,2.1,0.6,3.4,0.9c1.2,0.2,2.7,0.4,4.2,0.4
		s3-0.1,4.5-0.4s3.1-0.8,4.6-1.5c0.8-0.4,1.5-0.8,2.1-1.2s1.4-1,2-1.5s1.1-1.1,1.6-1.8l0.4-0.5l0.3-0.5c0.1-0.1,0.2-0.4,0.3-0.5
		l0.1-0.3l0,0l0,0l0,0l0,0v-0.1c0.7-1.4,1.1-3,1.3-4.5c0.1-1.5,0.1-3.1-0.1-4.5c-0.2-1.5-0.6-2.8-1-4c-0.1-0.3-0.2-0.6-0.4-0.9
		s-0.2-0.5-0.4-0.9c-0.2-0.5-0.5-1-0.8-1.5c-0.5-1-1-1.8-1.5-2.4c-0.4-0.6-0.8-1.1-1-1.5C270.9,298.9,270.7,298.6,270.7,298.6z"/>
</g>
<path class="st2" d="M131.8,221c-0.6,1.6-0.8,4.5,0.2,7.8c1.6,5.3,6.5,9.8,8.5,8.9c0.6-0.2,1.1-0.9,1.2-3.4"/>
<polygon class="st1" points="139.6,235.1 139.6,238.1 143.7,237.6 "/>
</svg>
