<?xml version="1.0" encoding="utf-8"?>
<!-- Generator: Adobe Illustrator 19.0.0, SVG Export Plug-In . SVG Version: 6.00 Build 0)  -->
<svg version="1.1" id="图层_1" xmlns="http://www.w3.org/2000/svg" xmlns:xlink="http://www.w3.org/1999/xlink" x="0px" y="0px"
	 viewBox="84 84 332 332" style="enable-background:new 84 84 332 332;" xml:space="preserve">
<style type="text/css">
	.st0{fill:#FFB53E;}
	.st1{fill:#FFFFFF;}
	.st2{fill:#223135;}
	.st3{fill:none;stroke:#223135;stroke-width:5;stroke-miterlimit:10;}
	.st4{fill:#D6D6D6;}
	.st5{fill:#EF4836;}
	.st6{fill:#FF9900;}
	.st7{fill:#33CC99;}
</style>
<g id="图层_1_2_">
	<circle class="st0" cx="250" cy="250" r="165.6"/>
</g>
<path class="st1" d="M194.9,160.9c20.5-1.2,27.1,23.8,54.7,23.7c27.7-0.1,34.3-25.6,54.7-24.5c40.4,2.3,85.1,107.3,53,147.7
	c-1.9,2.4-6.8,8.5-15.5,12.2c-30.1,13.1-50.3-37.7-92.2-37.9c-42.6-0.2-65.1,51.6-93.1,37.9c-7.9-3.9-12.1-10-14.7-13.9
	C111.8,262,155.1,163.4,194.9,160.9z"/>
<ellipse class="st1" cx="249.3" cy="205.6" rx="79.4" ry="35.9"/>
<circle class="st2" cx="190.4" cy="233.9" r="26.7"/>
<circle class="st3" cx="249.3" cy="235.1" r="4.8"/>
<circle class="st4" cx="311.6" cy="217.9" r="8.7"/>
<circle class="st5" cx="311.6" cy="252.6" r="8.7"/>
<circle class="st6" cx="329" cy="235.2" r="8.7"/>
<circle class="st7" cx="294.1" cy="235.2" r="8.7"/>
<circle class="st2" cx="264.1" cy="235.1" r="2.4"/>
<circle class="st2" cx="233.9" cy="235.1" r="2.4"/>
</svg>
