<?xml version="1.0" encoding="utf-8"?>
<!-- Generator: Adobe Illustrator 19.0.0, SVG Export Plug-In . SVG Version: 6.00 Build 0)  -->
<svg version="1.1" id="图层_1" xmlns="http://www.w3.org/2000/svg" xmlns:xlink="http://www.w3.org/1999/xlink" x="0px" y="0px"
	 viewBox="84 84 333 333" style="enable-background:new 84 84 333 333;" xml:space="preserve">
<style type="text/css">
	.st0{fill:#37335B;}
	.st1{fill:#67809F;}
	.st2{fill:#EF4836;}
	.st3{fill:#F7CA18;}
	.st4{fill:#33CC99;}
	.st5{fill:#D6D6D6;}
	.st6{fill:#FFFFFF;}
	.st7{fill:#F7CA18;stroke:#F7CA18;stroke-miterlimit:10;}
</style>
<g id="图层_1_3_">
	<circle class="st0" cx="250" cy="249.9" r="165.6"/>
</g>
<path class="st1" d="M328.2,396c-13,7-40.4,19.5-77.3,19.7C213.1,415.9,185,403,172,396l42.5-122h72.7L328.2,396z"/>
<ellipse class="st2" cx="250" cy="271.5" rx="110.4" ry="30"/>
<ellipse class="st3" cx="250" cy="264" rx="102.2" ry="25.5"/>
<ellipse class="st4" cx="250" cy="261" rx="78.1" ry="19.5"/>
<path class="st5" d="M305,251.1c0,30.3-110,30.3-110,0s24.6-55,55-55S305,220.8,305,251.1z"/>
<path class="st6" d="M223.3,213.4c1.3-1,3,0.7,2,2c-3.2,4.3-5.8,9.5-7,13.7c-3.3,11.3,6.5,21.5,2.3,25.8c-3,3-11.2,1.5-15-3.1
	c-6.7-8,2.7-22.3,3.5-23.5C213,222.4,218.4,217.2,223.3,213.4z"/>
<path class="st7" d="M162.9,145.1c0-0.2-0.3-0.2-0.3,0c0,1.6-0.5,4-2.7,6.2s-4.8,2.6-6.6,2.6c-0.2,0-0.2,0.2,0,0.2
	c2.2,0.5,4.8,0.7,6.3,2.7c2.3,3,1.6,7.4,2.4,7.5c0.8,0,0.5-4,3.3-6.8c3-3.2,7.7-2.9,7.6-3.8c0-0.8-4.2-0.2-7.2-2.4
	C163.5,149.8,163.3,147.4,162.9,145.1z"/>
<path class="st7" d="M346.9,167.9c0.3-0.2,0.2-0.7-0.2-0.6c-3.1,0.5-8.1,0.3-13.1-3c-5-3.5-6.8-8.5-7.3-11.8c0-0.3-0.5-0.3-0.5,0
	c0,4.5,0.3,9.5-3,13.2c-5,5.6-13.8,5.7-13.7,7.2c0.2,1.5,8-0.3,14.5,4c7.2,4.7,8.3,13.8,9.9,13.5c1.5-0.4-1.2-8.2,2.1-14.7
	C338.1,170.7,342.7,169.6,346.9,167.9z"/>
<path class="st7" d="M140.8,171.3c0-0.1-0.2-0.2-0.2,0c-0.2,0.9-0.9,2.3-2.5,3.2s-3.2,0.8-4.2,0.6c-0.1,0-0.2,0.1,0,0.2
	c1.2,0.5,2.7,1.1,3.3,2.5c1,2-0.1,4.5,0.3,4.7c0.5,0.2,0.9-2.2,2.8-3.5c2.2-1.4,4.8-0.6,5-1.1c0.1-0.5-2.5-0.7-3.8-2.4
	C140.5,174.1,140.8,172.7,140.8,171.3z"/>
</svg>
