<?xml version="1.0" encoding="utf-8"?>
<!-- Generator: Adobe Illustrator 19.0.0, SVG Export Plug-In . SVG Version: 6.00 Build 0)  -->
<svg version="1.1" id="图层_1" xmlns="http://www.w3.org/2000/svg" xmlns:xlink="http://www.w3.org/1999/xlink" x="0px" y="0px"
	 viewBox="0 0 237.3 79.3" style="enable-background:new 0 0 237.3 79.3;" xml:space="preserve">
<style type="text/css">
	.st0{fill:#DCDDDD;}
	.st1{fill:#EFEFEF;}
	.st2{fill:#33CC99;stroke:#33CC99;stroke-width:0.5;stroke-miterlimit:10;}
	.st3{fill:#33CC99;}
	.st4{fill:#FFFFFF;stroke:#FFFFFF;stroke-miterlimit:10;}
	.st5{fill:#33CC99;stroke:#33CC99;stroke-miterlimit:10;}
	.st6{fill:#FFFFFF;stroke:#33CC99;stroke-width:0.5;stroke-miterlimit:10;}
	.st7{fill:none;stroke:#33CC99;stroke-width:0.5;stroke-miterlimit:10;}
</style>
<g id="XMLID_1_">
	<g id="XMLID_423_">
		<path id="XMLID_427_" class="st0" d="M87.2,8.7c21.1,0,42.1,0,63.2,0c0.8,0,0.8-1.3,0-1.3c-21.1,0-42.1,0-63.2,0
			C86.4,7.5,86.4,8.7,87.2,8.7L87.2,8.7z"/>
	</g>
</g>
<g id="XMLID_4_">
	<g id="XMLID_336_">
		<path id="XMLID_421_" class="st0" d="M143.4,14c10,10.8,12.7,26.7,5.8,39.9c-5.9,11.2-17.7,18.4-30.4,18.3
			c-12.4,0-24.1-6.9-30.1-17.8c-7.3-13.2-4.7-29.5,5.4-40.5c0.5-0.6-0.3-1.5-0.9-0.9C77.6,30,81,57.7,101.6,69
			c19.1,10.5,43.7,1,50.8-19.6c4.4-12.8,1-26.6-8.1-36.4C143.7,12.5,142.8,13.4,143.4,14L143.4,14z"/>
	</g>
</g>
<g id="XMLID_3_">
	<g id="XMLID_2_">
		<g id="XMLID_331_">
			<path id="XMLID_422_" class="st1" d="M97.4,29.6c0.1,2.5,2,4.5,4.5,4.5c0.8,0,0.8-1.2,0-1.2c-1.8,0-3.3-1.5-3.3-3.3
				C98.6,28.8,97.4,28.8,97.4,29.6L97.4,29.6z"/>
		</g>
	</g>
	<g id="XMLID_5_">
		<g id="XMLID_308_">
			<path id="XMLID_328_" class="st1" d="M102.3,34.2c2.5-0.1,4.5-2,4.5-4.5c0-0.8-1.2-0.8-1.2,0c0,1.8-1.5,3.3-3.3,3.3
				C101.5,33,101.5,34.2,102.3,34.2L102.3,34.2z"/>
		</g>
	</g>
	<g id="XMLID_26_">
		<g id="XMLID_199_">
			<path id="XMLID_230_" class="st1" d="M105.6,29.6c0.1,2.5,2,4.5,4.5,4.5c0.8,0,0.8-1.2,0-1.2c-1.8,0-3.3-1.5-3.3-3.3
				C106.8,28.8,105.6,28.8,105.6,29.6L105.6,29.6z"/>
		</g>
	</g>
	<g id="XMLID_6_">
		<g id="XMLID_188_">
			<path id="XMLID_196_" class="st1" d="M110.4,34.2c2.5-0.1,4.5-2,4.5-4.5c0-0.8-1.2-0.8-1.2,0c0,1.8-1.5,3.3-3.3,3.3
				C109.6,33,109.6,34.2,110.4,34.2L110.4,34.2z"/>
		</g>
	</g>
	<g id="XMLID_65_">
		<g id="XMLID_179_">
			<path id="XMLID_186_" class="st1" d="M113.7,29.6c0.1,2.5,2,4.5,4.5,4.5c0.8,0,0.8-1.2,0-1.2c-1.8,0-3.3-1.5-3.3-3.3
				C115,28.8,113.7,28.8,113.7,29.6L113.7,29.6z"/>
		</g>
	</g>
	<g id="XMLID_58_">
		<g id="XMLID_168_">
			<path id="XMLID_175_" class="st1" d="M118.6,34.2c2.5-0.1,4.5-2,4.5-4.5c0-0.8-1.2-0.8-1.2,0c0,1.8-1.5,3.3-3.3,3.3
				C117.8,33,117.8,34.2,118.6,34.2L118.6,34.2z"/>
		</g>
	</g>
	<g id="XMLID_46_">
		<g id="XMLID_159_">
			<path id="XMLID_165_" class="st1" d="M121.9,29.6c0.1,2.5,2,4.5,4.5,4.5c0.8,0,0.8-1.2,0-1.2c-1.8,0-3.3-1.5-3.3-3.3
				C123.1,28.8,121.9,28.8,121.9,29.6L121.9,29.6z"/>
		</g>
	</g>
	<g id="XMLID_39_">
		<g id="XMLID_151_">
			<path id="XMLID_157_" class="st1" d="M126.8,34.2c2.5-0.1,4.5-2,4.5-4.5c0-0.8-1.2-0.8-1.2,0c0,1.8-1.5,3.3-3.3,3.3
				C126,33,126,34.2,126.8,34.2L126.8,34.2z"/>
		</g>
	</g>
	<g id="XMLID_24_">
		<g id="XMLID_145_">
			<path id="XMLID_149_" class="st1" d="M130.1,29.6c0.1,2.5,2,4.5,4.5,4.5c0.8,0,0.8-1.2,0-1.2c-1.8,0-3.3-1.5-3.3-3.3
				C131.3,28.8,130.1,28.8,130.1,29.6L130.1,29.6z"/>
		</g>
	</g>
	<g id="XMLID_7_">
		<g id="XMLID_138_">
			<path id="XMLID_142_" class="st1" d="M134.9,34.2c2.5-0.1,4.5-2,4.5-4.5c0-0.8-1.2-0.8-1.2,0c0,1.8-1.5,3.3-3.3,3.3
				C134.1,33,134.1,34.2,134.9,34.2L134.9,34.2z"/>
		</g>
	</g>
</g>
<g id="XMLID_13_">
	<g id="XMLID_191_">
		<g id="XMLID_128_">
			<path id="XMLID_135_" class="st1" d="M97.7,45.7c0.1,2.5,2,4.5,4.5,4.5c0.8,0,0.8-1.2,0-1.2c-1.8,0-3.3-1.5-3.3-3.3
				C98.9,44.9,97.7,44.9,97.7,45.7L97.7,45.7z"/>
		</g>
	</g>
	<g id="XMLID_184_">
		<g id="XMLID_119_">
			<path id="XMLID_126_" class="st1" d="M102.6,50.2c2.5-0.1,4.5-2,4.5-4.5c0-0.8-1.2-0.8-1.2,0c0,1.8-1.5,3.3-3.3,3.3
				C101.8,49,101.8,50.2,102.6,50.2L102.6,50.2z"/>
		</g>
	</g>
	<g id="XMLID_177_">
		<g id="XMLID_112_">
			<path id="XMLID_117_" class="st1" d="M105.9,45.7c0.1,2.5,2,4.5,4.5,4.5c0.8,0,0.8-1.2,0-1.2c-1.8,0-3.3-1.5-3.3-3.3
				C107.1,44.9,105.8,44.9,105.9,45.7L105.9,45.7z"/>
		</g>
	</g>
	<g id="XMLID_170_">
		<g id="XMLID_98_">
			<path id="XMLID_102_" class="st1" d="M110.7,50.2c2.5-0.1,4.5-2,4.5-4.5c0-0.8-1.2-0.8-1.2,0c0,1.8-1.5,3.3-3.3,3.3
				C109.9,49,109.9,50.2,110.7,50.2L110.7,50.2z"/>
		</g>
	</g>
	<g id="XMLID_163_">
		<g id="XMLID_92_">
			<path id="XMLID_96_" class="st1" d="M114,45.7c0.1,2.5,2,4.5,4.5,4.5c0.8,0,0.8-1.2,0-1.2c-1.8,0-3.3-1.5-3.3-3.3
				C115.3,44.9,114,44.9,114,45.7L114,45.7z"/>
		</g>
	</g>
	<g id="XMLID_156_">
		<g id="XMLID_85_">
			<path id="XMLID_90_" class="st1" d="M118.9,50.2c2.5-0.1,4.5-2,4.5-4.5c0-0.8-1.2-0.8-1.2,0c0,1.8-1.5,3.3-3.3,3.3
				C118.1,49,118.1,50.2,118.9,50.2L118.9,50.2z"/>
		</g>
	</g>
	<g id="XMLID_103_">
		<g id="XMLID_78_">
			<path id="XMLID_83_" class="st1" d="M122.2,45.7c0.1,2.5,2,4.5,4.5,4.5c0.8,0,0.8-1.2,0-1.2c-1.8,0-3.3-1.5-3.3-3.3
				C123.4,44.9,122.2,44.9,122.2,45.7L122.2,45.7z"/>
		</g>
	</g>
	<g id="XMLID_88_">
		<g id="XMLID_71_">
			<path id="XMLID_75_" class="st1" d="M127.1,50.2c2.5-0.1,4.5-2,4.5-4.5c0-0.8-1.2-0.8-1.2,0c0,1.8-1.5,3.3-3.3,3.3
				C126.3,49,126.3,50.2,127.1,50.2L127.1,50.2z"/>
		</g>
	</g>
	<g id="XMLID_36_">
		<g id="XMLID_64_">
			<path id="XMLID_69_" class="st1" d="M130.4,45.7c0.1,2.5,2,4.5,4.5,4.5c0.8,0,0.8-1.2,0-1.2c-1.8,0-3.3-1.5-3.3-3.3
				C131.6,44.9,130.4,44.9,130.4,45.7L130.4,45.7z"/>
		</g>
	</g>
	<g id="XMLID_14_">
		<g id="XMLID_57_">
			<path id="XMLID_62_" class="st1" d="M135.2,50.2c2.5-0.1,4.5-2,4.5-4.5c0-0.8-1.2-0.8-1.2,0c0,1.8-1.5,3.3-3.3,3.3
				C134.4,49,134.4,50.2,135.2,50.2L135.2,50.2z"/>
		</g>
	</g>
</g>
<g id="XMLID_8_">
	<path id="XMLID_111_" class="st2" d="M138.6,55.9c0.2-0.1,0.4,0.1,0.2,0.2c-1,1.4-3.1,3.9-6.7,4.9c-3,0.8-5,0.2-6.3-0.3
		c-0.2-0.1-0.6-0.4-0.3-0.4c3.1-0.1,7.4-0.3,11.6-2.9C137.7,57.1,138.1,56.2,138.6,55.9z"/>
	<path id="XMLID_110_" class="st3" d="M125.8,52.6c-1.8,0.5-2.9,2.1-3.1,3.9c-0.2,2.1,1.3,3.7,2.5,4.3c1,0.5,2,0.2,4.2-0.1
		c2.5-0.4,6.4-1,7.6-2.7c0.3-0.4,0.6,0,0.5-0.7c-0.1-1.5-4.3-3.5-7.9-3.5C128.5,53.3,127.1,53,125.8,52.6z"/>
	<circle id="XMLID_109_" class="st4" cx="126.1" cy="55.3" r="0.5"/>
	<g id="XMLID_107_">
		<path id="XMLID_108_" class="st3" d="M129.5,61.6C129.5,61.6,129.5,61.6,129.5,61.6c0.1,0,0.2-0.1,0.3-0.1s0.2,0,0.3,0
			c0.1,0,0.2,0,0.3-0.1c0,0,0.1,0,0.1,0c0,0,0.1,0,0.1,0c0.1,0,0.2,0,0.3,0c0.1,0,0.1,0,0.2,0c0,0,0.1,0,0.1,0c0,0,0.1,0,0.1,0
			c0,0,0,0,0.1,0c0,0,0,0,0.1,0s0,0,0.1,0c0,0,0.1,0,0.1,0.1c0.1,0,0.1,0.1,0.2,0.1c0,0,0.1,0,0.1,0.1c0,0,0.1,0.1,0.1,0.1
			c0.1,0,0.2,0.1,0.3,0.2c0.1,0,0.2,0.1,0.3,0.1c0.1,0,0.2,0,0.2,0.1c0.1,0,0.1,0,0.1,0l0.2,0.1c0,0,0,0-0.1,0.1
			c0,0-0.1,0.1-0.1,0.1c0,0-0.1,0-0.2,0.1c-0.1,0-0.1,0-0.3,0.1c-0.1,0-0.2,0-0.3,0c-0.1,0-0.1,0-0.2,0s-0.1,0-0.2,0s-0.1,0-0.2,0
			s-0.1,0-0.2,0c-0.1,0-0.1,0-0.2,0c-0.1,0-0.1,0-0.2-0.1c-0.1,0-0.3-0.1-0.4-0.1c-0.1,0-0.2-0.1-0.4-0.2c-0.1,0-0.2-0.1-0.3-0.2
			c-0.1,0-0.2-0.1-0.2-0.1c-0.1,0-0.1-0.1-0.2-0.1c-0.1-0.1-0.2-0.1-0.2-0.1L129.5,61.6z"/>
	</g>
	<g id="XMLID_105_">
		<path id="XMLID_106_" class="st3" d="M130.4,52.3c0,0,0.1,0,0.2-0.1c0.1,0,0.1-0.1,0.2-0.1c0.1,0,0.1-0.1,0.2-0.1
			c0.1,0,0.2-0.1,0.3-0.1c0.1,0,0.2-0.1,0.4-0.1c0.1,0,0.3-0.1,0.4-0.1c0.1,0,0.1,0,0.2-0.1c0.1,0,0.1,0,0.2,0c0.1,0,0.1,0,0.2,0
			s0.1,0,0.2,0s0.1,0,0.2,0s0.1,0,0.2,0c0.1,0,0.3,0,0.3,0c0.1,0,0.2,0,0.3,0.1c0.1,0,0.1,0,0.2,0.1c0,0,0.1,0.1,0.1,0.1
			c0.1,0.1,0.1,0.1,0.1,0.1l-0.2,0.1c0,0,0,0-0.1,0c0,0-0.1,0-0.2,0.1c-0.1,0-0.2,0.1-0.3,0.1c-0.1,0-0.2,0.1-0.3,0.1
			c0,0-0.1,0.1-0.1,0.1c0,0-0.1,0-0.1,0.1c-0.1,0-0.1,0.1-0.2,0.1c0,0,0,0-0.1,0.1c0,0,0,0-0.1,0c0,0-0.1,0-0.1,0c0,0-0.1,0-0.1,0
			c0,0,0,0-0.1,0s-0.1,0-0.1,0c-0.1,0-0.1,0-0.2,0c-0.1,0-0.2,0-0.3,0c0,0-0.1,0-0.1,0c0,0-0.1,0-0.1,0c-0.1,0-0.2,0-0.3-0.1
			c-0.1,0-0.2,0-0.3,0c-0.1,0-0.2,0-0.2,0c-0.1,0-0.1,0-0.1,0L130.4,52.3z"/>
	</g>
	<path id="XMLID_10_" class="st2" d="M138.2,59.3c0.1,0.2,0.4,0,0.3-0.2c-0.6-1.6-2.2-4.5-5.7-5.9c-2.8-1.2-5.2-0.8-6.7-0.4
		c-0.2,0-0.6,0.4-0.3,0.4c3.1,0.5,7.6,1.2,11.3,4.4C137.6,57.9,137.7,58.8,138.2,59.3z"/>
	<path id="XMLID_9_" class="st5" d="M138.6,59.3c-1.2-0.5-1-2,0.5-3.4"/>
	<circle id="XMLID_12_" class="st6" cx="118.7" cy="53.3" r="1.7"/>
	<circle id="XMLID_15_" class="st7" cx="116.9" cy="35.6" r="5.3"/>
	<circle id="XMLID_16_" class="st6" cx="123.8" cy="29" r="1.7"/>
	<circle id="XMLID_17_" class="st7" cx="118.4" cy="19" r="2.7"/>
</g>
</svg>
