<?xml version="1.0" encoding="utf-8"?>
<!-- Generator: Adobe Illustrator 19.0.0, SVG Export Plug-In . SVG Version: 6.00 Build 0)  -->
<svg version="1.1" id="图层_1" xmlns="http://www.w3.org/2000/svg" xmlns:xlink="http://www.w3.org/1999/xlink" x="0px" y="0px"
	 viewBox="0 0 500 500" style="enable-background:new 0 0 500 500;" xml:space="preserve">
<style type="text/css">
	.st0{fill:#DCDDDD;stroke:#DCDDDD;stroke-miterlimit:10;}
	.st1{fill:#DCDDDD;}
	.st2{fill:#FFFFFF;stroke:#FFFFFF;stroke-miterlimit:10;}
	.st3{fill:#FFFFFF;}
</style>
<g>
	<path class="st0" d="M319.9,293.9c0.7-0.5,1.5,0.3,1,1c-4,5.7-12.7,15.9-27.3,20c-12,3.2-20.1,1-25.4-1.1c-0.8-0.3-2.3-1.8-1.4-1.8
		c12.4-0.6,29.8-1.4,47-11.7C316,299,317.9,295.4,319.9,293.9z"/>
	<path class="st1" d="M268.2,280.7c-7.4,2.2-11.9,8.4-12.7,15.8c-0.9,8.6,5.4,15,10.3,17.4c4.2,1.9,8.1,0.9,16.8-0.6
		c10.2-1.8,25.8-4.2,30.9-11.1c1.3-1.7,2.4-0.1,2-3c-0.6-6-17.2-14-31.9-14.3C278.9,283.4,273.1,282.3,268.2,280.7z"/>
	<circle class="st2" cx="269.4" cy="291.5" r="1.9"/>
	<g>
		<path class="st1" d="M283,317c0,0,0.1-0.1,0.4-0.1c0.2,0,0.6-0.2,1-0.2s0.9-0.2,1.3-0.2c0.3-0.2,0.8-0.2,1.2-0.3
			c0.2,0,0.4-0.1,0.6-0.2s0.4-0.1,0.6-0.2c0.4-0.1,0.7-0.2,1.1-0.2c0.4-0.1,0.6-0.1,1-0.1c0.2,0,0.3,0,0.4,0c0.2,0,0.3,0,0.3,0.1
			c0.2,0,0.2,0.1,0.4,0.2c0.2,0,0.2,0.1,0.4,0.2c0.2,0.1,0.2,0.1,0.3,0.2c0.2,0.1,0.3,0.2,0.4,0.3c0.3,0.2,0.6,0.5,1,0.6
			c0.2,0.2,0.3,0.2,0.6,0.3c0.2,0.1,0.4,0.3,0.6,0.4c0.5,0.2,0.9,0.5,1.4,0.7c0.4,0.2,1,0.5,1.4,0.6c0.4,0.2,0.8,0.2,1,0.3
			c0.3,0.1,0.4,0.2,0.4,0.2l0.7,0.5c0,0-0.2,0.2-0.5,0.4c0,0.2-0.3,0.3-0.5,0.5s-0.5,0.2-0.8,0.5c-0.3,0.2-0.6,0.2-1.1,0.3
			c-0.4,0.1-1,0.2-1.4,0.1c-0.3,0-0.6,0-0.9,0s-0.6,0-0.9,0s-0.6-0.1-1-0.1s-0.6-0.2-0.9-0.2c-0.3-0.1-0.6-0.2-1-0.2
			c-0.3-0.1-0.6-0.2-0.9-0.3c-0.6-0.2-1.2-0.4-1.8-0.6c-0.6-0.2-1-0.5-1.5-0.7s-1-0.6-1.4-0.7c-0.5-0.2-0.7-0.5-1-0.6
			s-0.5-0.4-0.8-0.6c-0.4-0.3-0.7-0.5-0.7-0.5L283,317z"/>
	</g>
	<g>
		<path class="st1" d="M286.7,279.6c0,0,0.3-0.2,0.7-0.5c0.3-0.2,0.4-0.3,0.8-0.5c0.3-0.2,0.6-0.5,1-0.6c0.4-0.2,0.9-0.5,1.4-0.6
			c0.5-0.2,1-0.5,1.5-0.6s1.1-0.5,1.8-0.6c0.3-0.2,0.5-0.2,0.9-0.3c0.4-0.1,0.6-0.2,1-0.2c0.3,0,0.6-0.2,0.9-0.2s0.6-0.1,1-0.1
			s0.6,0,0.9,0s0.6,0,0.9,0c0.5-0.1,1.1,0.1,1.4,0.2c0.4,0.2,0.8,0.2,1.1,0.3c0.4,0.2,0.6,0.2,0.8,0.5c0.2,0.2,0.5,0.3,0.5,0.5
			c0.3,0.3,0.5,0.4,0.5,0.4l-0.8,0.4c0,0-0.1,0.1-0.4,0.2c-0.2,0.1-0.6,0.2-1,0.3c-0.4,0.1-1,0.4-1.4,0.6c-0.5,0.2-0.9,0.5-1.4,0.6
			c-0.2,0.1-0.4,0.3-0.6,0.4s-0.4,0.2-0.6,0.3c-0.3,0.2-0.6,0.5-1,0.6c-0.2,0.2-0.2,0.2-0.4,0.3c-0.2,0.2-0.2,0.2-0.3,0.2
			c-0.2,0.1-0.3,0.2-0.4,0.2c-0.2,0.1-0.3,0.2-0.4,0.2c-0.1,0.1-0.2,0.1-0.4,0.1s-0.3,0-0.4,0c-0.3,0-0.6,0-1-0.1s-0.7-0.2-1.1-0.2
			c-0.2-0.1-0.4-0.1-0.6-0.2s-0.4-0.2-0.6-0.2c-0.4-0.2-1-0.2-1.2-0.3c-0.4-0.2-1-0.2-1.3-0.2c-0.4-0.1-0.8-0.2-1-0.2
			c-0.3,0-0.4-0.1-0.4-0.1L286.7,279.6z"/>
	</g>
	<g>
		<circle class="st3" cx="239.1" cy="294.3" r="3.4"/>
		<g>
			<path class="st3" d="M239.1,291.8c3.2,0.2,3.2,5,0,5C235.9,296.7,235.9,291.9,239.1,291.8c1.3-0.1,1.3-2.1,0-2
				c-2.4,0.2-4.5,1.9-4.5,4.5c0,2.4,2.1,4.5,4.5,4.5s4.4-1.9,4.5-4.3c0.1-2.6-2-4.6-4.5-4.6C237.8,289.7,237.8,291.7,239.1,291.8z"
				/>
		</g>
	</g>
	<g>
		<circle class="st3" cx="238.7" cy="182.7" r="7.1"/>
		<g>
			<path class="st3" d="M238.7,176.6c7.8,0.4,7.9,12.1,0,12.1C230.8,188.7,230.9,177,238.7,176.6c1.3-0.1,1.3-2.1,0-2
				c-4.4,0.2-8.1,3.5-8.1,8.1c0,4.4,3.7,8.1,8.1,8.1c4.2,0,7.9-3.4,8-7.7c0.2-4.7-3.5-8.2-8-8.5
				C237.4,174.5,237.4,176.5,238.7,176.6z"/>
		</g>
	</g>
	<g>
		<circle class="st3" cx="234.7" cy="247.1" r="13.9"/>
		<g>
			<path class="st3" d="M234.7,234.2c7.1,0.2,12.9,5.7,12.9,12.9c0,7.1-5.9,12.9-12.9,12.9s-12.9-5.9-12.9-12.9
				C221.8,239.9,227.7,234.5,234.7,234.2c1.3-0.1,1.3-2.1,0-2c-8.2,0.3-14.9,6.6-14.9,14.9c0,8.1,6.8,14.9,14.9,14.9
				s14.9-6.8,14.9-14.9c0-8.3-6.8-14.7-14.9-14.9C233.5,232.1,233.5,234.2,234.7,234.2z"/>
		</g>
	</g>
	<g>
		<circle class="st3" cx="253.6" cy="229.1" r="3.8"/>
		<g>
			<path class="st3" d="M253.6,226.3c3.7,0.2,3.7,5.7,0,5.7S250,226.5,253.6,226.3c1.3-0.1,1.3-2.1,0-2c-2.6,0.2-4.9,2.1-4.9,4.9
				c0,2.6,2.2,4.9,4.9,4.9c2.6,0,4.7-2.1,4.8-4.6c0.1-2.8-2.2-4.9-4.8-5C252.3,224.2,252.3,226.2,253.6,226.3z"/>
		</g>
	</g>
	<path class="st0" d="M318,307.7c0.6,0.7,1.8-0.2,1.4-1c-2.6-6.3-9-18.2-22.9-23.9c-11.5-4.7-21-3.3-27-1.7
		c-0.9,0.2-2.3,1.8-1.4,1.8c12.7,2,30.7,5,45.8,17.7C315.8,302.3,316.3,305.9,318,307.7z"/>
	<path class="st0" d="M319.4,307.4c-3-2-2.3-8,1.4-13.5"/>
</g>
</svg>
