<?xml version="1.0" encoding="utf-8"?>
<!-- Generator: Adobe Illustrator 19.0.0, SVG Export Plug-In . SVG Version: 6.00 Build 0)  -->
<svg version="1.1" id="图层_1" xmlns="http://www.w3.org/2000/svg" xmlns:xlink="http://www.w3.org/1999/xlink" x="0px" y="0px"
	 viewBox="480 122.6 153 169" style="enable-background:new 480 122.6 153 169;" xml:space="preserve">
<style type="text/css">
	.st0{fill:#33CC99;stroke:#33CC99;stroke-miterlimit:10;}
	.st1{fill:#33CC99;}
	.st2{fill:#F7F8F8;stroke:#F7F8F8;stroke-miterlimit:10;}
	.st3{fill:#33CC99;stroke:#FFFFFF;stroke-miterlimit:10;}
	.st4{fill:none;stroke:#33CC99;stroke-miterlimit:10;}
	.st5{fill:none;stroke:#33CC99;stroke-width:2;stroke-miterlimit:10;}
</style>
<path class="st0" d="M616.6,263.8c0.8-0.4,1.4,0.6,0.8,1.2c-4.9,4.7-15.1,13-29.8,14.2c-12.1,0.9-21.2-3.3-25.9-6.2
	c-0.7-0.4-0.2-1.6,0.6-1.5c12,1.7,28.8,4.1,47.2-2.8C611.9,268.1,614.4,264.9,616.6,263.8z"/>
<path class="st1" d="M569.4,241.9c-7.5,0.8-12.9,5.9-15,12.9c-2.4,8.1,2.5,15.3,6.8,18.5c3.6,2.6,7.6,2.3,16.2,2.5
	c10,0.1,25.5,0.6,31.6-5c1.6-1.4,2.3,0.4,2.5-2.5c0.5-5.9-14-16.5-28-19.5C579.1,246.4,573.7,244.3,569.4,241.9z"/>
<circle class="st2" cx="568.6" cy="252.5" r="1.9"/>
<g>
	<path class="st3" d="M571.9,277.4c0,0,0.1-0.1,0.5-0.1c0.2,0,0.8-0.2,1.3-0.3s1.2-0.2,1.7-0.4c0.4-0.2,1.1-0.3,1.6-0.5
		c0.2,0,0.5-0.1,0.8-0.2s0.5-0.1,0.8-0.2c0.5-0.1,1-0.2,1.5-0.3s0.9-0.1,1.3-0.1c0.2,0,0.4,0,0.6,0s0.4,0,0.5,0.1
		c0.2,0,0.3,0.1,0.6,0.2c0.2,0,0.3,0.1,0.6,0.2s0.3,0.1,0.5,0.3c0.3,0.1,0.4,0.2,0.6,0.4c0.5,0.3,0.8,0.6,1.3,0.9
		c0.2,0.2,0.5,0.3,0.8,0.4s0.6,0.4,0.9,0.5c0.7,0.3,1.2,0.6,1.8,0.9c0.6,0.2,1.4,0.6,1.8,0.7c0.6,0.2,1.1,0.3,1.4,0.4
		c0.5,0.1,0.6,0.2,0.6,0.2l1,0.6c0,0-0.2,0.2-0.6,0.6c0,0.2-0.4,0.4-0.7,0.7c-0.3,0.3-0.6,0.4-1.1,0.7c-0.4,0.2-0.9,0.3-1.5,0.5
		c-0.5,0.1-1.3,0.3-1.9,0.2c-0.4,0-0.8,0-1.2,0s-0.8,0-1.2,0s-0.9-0.1-1.3-0.1s-0.8-0.2-1.2-0.2c-0.5-0.1-0.8-0.2-1.3-0.3
		c-0.5-0.1-0.8-0.2-1.2-0.4c-0.8-0.2-1.6-0.5-2.3-0.8s-1.4-0.6-2-0.9c-0.7-0.3-1.3-0.7-1.8-0.9c-0.7-0.3-1-0.6-1.5-0.9
		s-0.7-0.5-1.1-0.7c-0.6-0.4-1-0.6-1-0.6L571.9,277.4z"/>
</g>
<circle class="st4" cx="530.1" cy="254" r="3.4"/>
<circle class="st4" cx="544.4" cy="218.2" r="6.9"/>
<circle class="st4" cx="508.9" cy="144" r="13.6"/>
<g>
	<path class="st1" d="M553.4,253.5c0,0,0.1,0,0.4,0c0.1,0,0.3,0,0.4,0.1c0.2,0.1,0.4,0.2,0.5,0.4c0.1,0.1,0.4,0.4,0.5,0.5
		s0.3,0.4,0.4,0.6s0.1,0.6,0.2,0.8c0,0.3,0,0.6,0,0.8c0,0.3-0.1,0.6-0.3,0.8c-0.1,0.3-0.2,0.5-0.4,0.7s-0.4,0.4-0.6,0.6
		c-0.1,0.1-0.4,0.3-0.6,0.4c-0.2,0.1-0.4,0.1-0.6,0.1c-0.1,0-0.4,0.1-0.4,0c-0.3,0-0.4-0.1-0.4-0.1l-0.1-0.1c0,0,0.3-0.3,0.7-0.7
		c0.4-0.4,0.7-1.1,0.8-1.9c0.1-0.7,0-1.6-0.2-2.1S553.3,253.6,553.4,253.5L553.4,253.5z"/>
</g>
<path class="st0" d="M612.3,276.8c0.5,0.8,1.7,0.1,1.5-0.8c-1.3-6.6-5.3-19-17.7-27c-10.2-6.6-20.9-7-26.9-6.6
	c-0.9,0.1-1.2,1.3-0.4,1.6c11.8,4.2,28.5,10.4,40.7,25.2C611.1,271.2,610.9,274.7,612.3,276.8z"/>
<path class="st5" d="M613.3,277.6c-2.7-2.7-0.8-8.7,4.1-13.7"/>
</svg>
