<?xml version="1.0" encoding="utf-8"?>
<!-- Generator: Adobe Illustrator 18.1.1, SVG Export Plug-In . SVG Version: 6.00 Build 0)  -->
<svg version="1.1" id="图层_1" xmlns="http://www.w3.org/2000/svg" xmlns:xlink="http://www.w3.org/1999/xlink" x="0px" y="0px"
	 viewBox="0 0 1000 1000" enable-background="new 0 0 1000 1000" xml:space="preserve">
<circle fill="#F9F9F9" cx="500" cy="499.2" r="482"/>
<g>
	<g>
		<path fill="#33CC99" d="M250,560c16.6,0,33.2,0,49.8,0c39.8,0,79.7,0,119.5,0c48,0,96,0,144.1,0c41.7,0,83.3,0,125,0
			c20.2,0,40.5,0.2,60.8,0c0.3,0,0.6,0,0.9,0c15.4,0,31.5-6.7,42.4-17.6c10.4-10.4,18.2-27.5,17.6-42.4
			c-0.7-15.5-5.8-31.6-17.6-42.4C780.7,446.8,766.3,440,750,440c-16.6,0-33.2,0-49.8,0c-39.8,0-79.7,0-119.5,0c-48,0-96,0-144.1,0
			c-41.7,0-83.3,0-125,0c-20.2,0-40.5-0.2-60.8,0c-0.3,0-0.6,0-0.9,0c-15.4,0-31.5,6.7-42.4,17.6C197.2,468,189.3,485.1,190,500
			c0.7,15.5,5.8,31.6,17.6,42.4C219.3,553.2,233.7,560,250,560L250,560z"/>
	</g>
</g>
<g>
	<g>
		<path fill="#33CC99" d="M440,250c0,16.6,0,33.2,0,49.8c0,39.8,0,79.7,0,119.5c0,48,0,96,0,144.1c0,41.7,0,83.3,0,125
			c0,20.2-0.2,40.5,0,60.8c0,0.3,0,0.6,0,0.9c0,15.4,6.7,31.5,17.6,42.4c10.4,10.4,27.5,18.2,42.4,17.6c15.5-0.7,31.6-5.8,42.4-17.6
			c10.8-11.7,17.6-26.2,17.6-42.4c0-16.6,0-33.2,0-49.8c0-39.8,0-79.7,0-119.5c0-48,0-96,0-144.1c0-41.7,0-83.3,0-125
			c0-20.2,0.2-40.5,0-60.8c0-0.3,0-0.6,0-0.9c0-15.4-6.7-31.5-17.6-42.4C532,197.2,514.9,189.3,500,190
			c-15.5,0.7-31.6,5.8-42.4,17.6C446.8,219.3,440,233.7,440,250L440,250z"/>
	</g>
</g>
</svg>
