<?xml version="1.0" encoding="utf-8"?>
<!-- Generator: Adobe Illustrator 19.0.0, SVG Export Plug-In . SVG Version: 6.00 Build 0)  -->
<svg version="1.1" id="图层_1" xmlns="http://www.w3.org/2000/svg" xmlns:xlink="http://www.w3.org/1999/xlink" x="0px" y="0px"
	 viewBox="0 0 237.3 79.3" style="enable-background:new 0 0 237.3 79.3;" xml:space="preserve">
<style type="text/css">
	.st0{fill:#EFEFEF;}
	.st1{fill:none;stroke:#33CC99;stroke-width:0.75;stroke-miterlimit:10;}
	.st2{fill:#FFFFFF;stroke:#33CC99;stroke-width:0.75;stroke-linecap:round;stroke-miterlimit:10;stroke-dasharray:1,2;}
	.st3{fill:#FFFFFF;stroke:#33CC99;stroke-width:0.75;stroke-miterlimit:10;}
	
		.st4{fill:none;stroke:#33CC99;stroke-width:0.75;stroke-linecap:round;stroke-linejoin:round;stroke-miterlimit:10;stroke-dasharray:1,2;}
	.st5{fill:#33CC99;}
</style>
<g id="XMLID_203_">
	<g id="XMLID_215_">
		<g id="XMLID_156_">
			<path id="XMLID_160_" class="st0" d="M89.3,46.6c0.1,3.5,2.8,6.1,6.2,6.2c0.8,0,0.8-1.2,0-1.2c-2.8-0.1-4.9-2.2-5-5
				C90.5,45.8,89.3,45.8,89.3,46.6L89.3,46.6z"/>
		</g>
	</g>
	<g id="XMLID_214_">
		<g id="XMLID_150_">
			<path id="XMLID_154_" class="st0" d="M96,52.9c3.5-0.1,6.1-2.8,6.2-6.2c0-0.8-1.2-0.8-1.2,0c-0.1,2.8-2.2,4.9-5,5
				C95.2,51.6,95.2,52.9,96,52.9L96,52.9z"/>
		</g>
	</g>
	<g id="XMLID_213_">
		<g id="XMLID_144_">
			<path id="XMLID_148_" class="st0" d="M101,46.6c0.1,3.5,2.8,6.1,6.2,6.2c0.8,0,0.8-1.2,0-1.2c-2.8-0.1-4.9-2.2-5-5
				C102.2,45.8,100.9,45.8,101,46.6L101,46.6z"/>
		</g>
	</g>
	<g id="XMLID_212_">
		<g id="XMLID_136_">
			<path id="XMLID_141_" class="st0" d="M107.6,52.9c3.5-0.1,6.1-2.8,6.2-6.2c0-0.8-1.2-0.8-1.2,0c-0.1,2.8-2.2,4.9-5,5
				C106.8,51.6,106.8,52.9,107.6,52.9L107.6,52.9z"/>
		</g>
	</g>
	<g id="XMLID_211_">
		<g id="XMLID_127_">
			<path id="XMLID_134_" class="st0" d="M112.6,46.6c0.1,3.5,2.8,6.1,6.2,6.2c0.8,0,0.8-1.2,0-1.2c-2.8-0.1-4.9-2.2-5-5
				C113.8,45.8,112.6,45.8,112.6,46.6L112.6,46.6z"/>
		</g>
	</g>
	<g id="XMLID_210_">
		<g id="XMLID_118_">
			<path id="XMLID_124_" class="st0" d="M119.3,52.9c3.5-0.1,6.1-2.8,6.2-6.2c0-0.8-1.2-0.8-1.2,0c-0.1,2.8-2.2,4.9-5,5
				C118.5,51.6,118.5,52.9,119.3,52.9L119.3,52.9z"/>
		</g>
	</g>
	<g id="XMLID_209_">
		<g id="XMLID_111_">
			<path id="XMLID_116_" class="st0" d="M124.3,46.6c0.1,3.5,2.8,6.1,6.2,6.2c0.8,0,0.8-1.2,0-1.2c-2.8-0.1-4.9-2.2-5-5
				C125.5,45.8,124.3,45.8,124.3,46.6L124.3,46.6z"/>
		</g>
	</g>
	<g id="XMLID_208_">
		<g id="XMLID_105_">
			<path id="XMLID_109_" class="st0" d="M131,52.9c3.5-0.1,6.1-2.8,6.2-6.2c0-0.8-1.2-0.8-1.2,0c-0.1,2.8-2.2,4.9-5,5
				C130.2,51.6,130.2,52.9,131,52.9L131,52.9z"/>
		</g>
	</g>
	<g id="XMLID_207_">
		<g id="XMLID_98_">
			<path id="XMLID_103_" class="st0" d="M136,46.6c0.1,3.5,2.8,6.1,6.2,6.2c0.8,0,0.8-1.2,0-1.2c-2.8-0.1-4.9-2.2-5-5
				C137.2,45.8,135.9,45.8,136,46.6L136,46.6z"/>
		</g>
	</g>
	<g id="XMLID_204_">
		<g id="XMLID_91_">
			<path id="XMLID_96_" class="st0" d="M142.6,52.9c3.5-0.1,6.1-2.8,6.2-6.2c0-0.8-1.2-0.8-1.2,0c-0.1,2.8-2.2,4.9-5,5
				C141.8,51.6,141.8,52.9,142.6,52.9L142.6,52.9z"/>
		</g>
	</g>
</g>
<g id="XMLID_94_">
	<g id="XMLID_200_">
		<g id="XMLID_85_">
			<path id="XMLID_89_" class="st0" d="M89.7,57.7c0.1,3.5,2.8,6.1,6.2,6.2c0.8,0,0.8-1.2,0-1.2c-2.8-0.1-4.9-2.2-5-5
				C90.9,56.9,89.7,56.9,89.7,57.7L89.7,57.7z"/>
		</g>
	</g>
	<g id="XMLID_199_">
		<g id="XMLID_78_">
			<path id="XMLID_83_" class="st0" d="M96.4,63.9c3.5-0.1,6.1-2.8,6.2-6.2c0-0.8-1.2-0.8-1.2,0c-0.1,2.8-2.2,4.9-5,5
				C95.6,62.7,95.6,63.9,96.4,63.9L96.4,63.9z"/>
		</g>
	</g>
	<g id="XMLID_197_">
		<g id="XMLID_71_">
			<path id="XMLID_75_" class="st0" d="M101.4,57.7c0.1,3.5,2.8,6.1,6.2,6.2c0.8,0,0.8-1.2,0-1.2c-2.8-0.1-4.9-2.2-5-5
				C102.6,56.9,101.4,56.9,101.4,57.7L101.4,57.7z"/>
		</g>
	</g>
	<g id="XMLID_196_">
		<g id="XMLID_65_">
			<path id="XMLID_69_" class="st0" d="M108.1,63.9c3.5-0.1,6.1-2.8,6.2-6.2c0-0.8-1.2-0.8-1.2,0c-0.1,2.8-2.2,4.9-5,5
				C107.3,62.7,107.3,63.9,108.1,63.9L108.1,63.9z"/>
		</g>
	</g>
	<g id="XMLID_195_">
		<g id="XMLID_59_">
			<path id="XMLID_63_" class="st0" d="M113,57.7c0.1,3.5,2.8,6.1,6.2,6.2c0.8,0,0.8-1.2,0-1.2c-2.8-0.1-4.9-2.2-5-5
				C114.3,56.9,113,56.9,113,57.7L113,57.7z"/>
		</g>
	</g>
	<g id="XMLID_192_">
		<g id="XMLID_53_">
			<path id="XMLID_57_" class="st0" d="M119.7,63.9c3.5-0.1,6.1-2.8,6.2-6.2c0-0.8-1.2-0.8-1.2,0c-0.1,2.8-2.2,4.9-5,5
				C118.9,62.7,118.9,63.9,119.7,63.9L119.7,63.9z"/>
		</g>
	</g>
	<g id="XMLID_190_">
		<g id="XMLID_47_">
			<path id="XMLID_51_" class="st0" d="M124.7,57.7c0.1,3.5,2.8,6.1,6.2,6.2c0.8,0,0.8-1.2,0-1.2c-2.8-0.1-4.9-2.2-5-5
				C125.9,56.9,124.7,56.9,124.7,57.7L124.7,57.7z"/>
		</g>
	</g>
	<g id="XMLID_189_">
		<g id="XMLID_29_">
			<path id="XMLID_45_" class="st0" d="M131.4,63.9c3.5-0.1,6.1-2.8,6.2-6.2c0-0.8-1.2-0.8-1.2,0c-0.1,2.8-2.2,4.9-5,5
				C130.6,62.7,130.6,63.9,131.4,63.9L131.4,63.9z"/>
		</g>
	</g>
	<g id="XMLID_181_">
		<g id="XMLID_23_">
			<path id="XMLID_27_" class="st0" d="M136.4,57.7c0.1,3.5,2.8,6.1,6.2,6.2c0.8,0,0.8-1.2,0-1.2c-2.8-0.1-4.9-2.2-5-5
				C137.6,56.9,136.4,56.9,136.4,57.7L136.4,57.7z"/>
		</g>
	</g>
	<g id="XMLID_100_">
		<g id="XMLID_16_">
			<path id="XMLID_21_" class="st0" d="M143.1,63.9c3.5-0.1,6.1-2.8,6.2-6.2c0-0.8-1.2-0.8-1.2,0c-0.1,2.8-2.2,4.9-5,5
				C142.3,62.7,142.3,63.9,143.1,63.9L143.1,63.9z"/>
		</g>
	</g>
</g>
<g id="XMLID_5_">
	<circle id="XMLID_87_" class="st1" cx="120.7" cy="69.6" r="2.8"/>
	<circle id="XMLID_11_" class="st2" cx="117.6" cy="41.3" r="8.9"/>
	<circle id="XMLID_7_" class="st3" cx="129.3" cy="28.4" r="2.9"/>
	<circle id="XMLID_6_" class="st4" cx="120.3" cy="11.5" r="4.6"/>
</g>
<path id="XMLID_2_" class="st5" d="M95.4,23.8l2.7,0.9c0.2,0.1,0.4,0,0.5-0.1L101,23c0.4-0.3,1,0,0.9,0.5l0,2.9
	c0,0.2,0.1,0.4,0.2,0.5l2.3,1.7c0.4,0.3,0.3,0.9-0.2,1l-2.7,0.9c-0.2,0.1-0.3,0.2-0.4,0.4l-0.9,2.7c-0.1,0.5-0.8,0.6-1,0.2l-1.7-2.3
	c-0.1-0.2-0.3-0.3-0.5-0.2l-2.9,0c-0.5,0-0.8-0.6-0.5-0.9l1.7-2.3c0.1-0.2,0.1-0.4,0.1-0.5l-0.9-2.7C94.5,24.1,95,23.7,95.4,23.8z"
	/>
<path id="XMLID_18_" class="st5" d="M140.3,40.8l1.2-0.6c0.1,0,0.1-0.1,0.1-0.2l0.2-1.3c0-0.2,0.3-0.3,0.5-0.2l0.9,0.9
	c0.1,0.1,0.2,0.1,0.2,0.1l1.3-0.2c0.2,0,0.4,0.2,0.3,0.4l-0.6,1.2c0,0.1,0,0.2,0,0.3l0.6,1.2c0.1,0.2-0.1,0.4-0.3,0.4l-1.3-0.2
	c-0.1,0-0.2,0-0.2,0.1l-0.9,0.9c-0.2,0.2-0.4,0.1-0.5-0.2l-0.2-1.3c0-0.1-0.1-0.2-0.1-0.2l-1.2-0.6
	C140.1,41.1,140.1,40.9,140.3,40.8z"/>
</svg>
