<?xml version="1.0" encoding="utf-8"?>
<!-- Generator: Adobe Illustrator 18.1.1, SVG Export Plug-In . SVG Version: 6.00 Build 0)  -->
<svg version="1.1" id="图层_1" xmlns="http://www.w3.org/2000/svg" xmlns:xlink="http://www.w3.org/1999/xlink" x="0px" y="0px"
	 viewBox="0 0 1000 1416.1" enable-background="new 0 0 1000 1416.1" xml:space="preserve">
<g>
	<g>
		<path fill="#00FFBB" d="M426.9,638.2c0-49.9,0-99.8,0-149.7c0-7,0-13.9,0-20.9c0-15.4-24-15.5-24,0c0,49.9,0,99.8,0,149.7
			c0,7,0,13.9,0,20.9C402.9,653.6,426.9,653.7,426.9,638.2L426.9,638.2z"/>
	</g>
</g>
<g>
	<g>
		<linearGradient id="SVGID_1_" gradientUnits="userSpaceOnUse" x1="536.8626" y1="442.6914" x2="502.2417" y2="502.6566">
			<stop  offset="0" style="stop-color:#00FFBB"/>
			<stop  offset="1" style="stop-color:#00DCBF"/>
		</linearGradient>
		<path fill="url(#SVGID_1_)" d="M541.2,472.7c-0.2,8.8-5.7,17.2-13.6,20.1c-9.4,3.4-18.7,1-25.1-6.7c-12-14.5,1.8-38.5,20.6-34.8
			C534.1,453.5,541,462.2,541.2,472.7c0.3,15.4,24.3,15.5,24,0c-0.4-19.5-12.3-36.3-30.6-43c-17.3-6.4-38.2-0.6-49.9,13.7
			c-12.1,14.8-14.3,35.9-4.4,52.6c10,16.9,29.5,24.9,48.6,21.4c21.2-3.9,35.9-23.6,36.3-44.6C565.5,457.2,541.5,457.2,541.2,472.7z"
			/>
	</g>
</g>
<g>
	<g>
		<path fill="#00FFBB" d="M427,467.5c0.2-24.8,9.8-48.8,27.5-66.4c17.6-17.6,41.6-27.3,66.4-27.5c15.4-0.1,15.5-24.1,0-24
			c-49.4,0.3-93.4,31.3-110.7,77.5c-4.8,12.9-7.1,26.7-7.2,40.4C402.9,483,426.9,483,427,467.5L427,467.5z"/>
	</g>
</g>
<g>
	<g>
		<linearGradient id="SVGID_2_" gradientUnits="userSpaceOnUse" x1="399.3413" y1="566.6285" x2="371.6102" y2="594.3596">
			<stop  offset="0" style="stop-color:#00FFBB"/>
			<stop  offset="1" style="stop-color:#00DCBF"/>
		</linearGradient>
		<path fill="url(#SVGID_2_)" d="M412.2,568.5c-17.8,0-35.6,0-53.5,0c-15.4,0-15.5,24,0,24c17.8,0,35.6,0,53.5,0
			C427.6,592.5,427.7,568.5,412.2,568.5L412.2,568.5z"/>
	</g>
</g>
<g>
	<g>
		<linearGradient id="SVGID_3_" gradientUnits="userSpaceOnUse" x1="357.3518" y1="580.887" x2="414.7309" y2="638.2661">
			<stop  offset="0" style="stop-color:#00FFBB"/>
			<stop  offset="1" style="stop-color:#00DCBF"/>
		</linearGradient>
		<path fill="url(#SVGID_3_)" d="M423.2,629.8c-19.1-19.1-38.3-38.3-57.4-57.4c-10.9-10.9-27.9,6-17,17
			c19.1,19.1,38.3,38.3,57.4,57.4C417.2,657.7,434.2,640.7,423.2,629.8L423.2,629.8z"/>
	</g>
</g>
<g>
	<g>
		<linearGradient id="SVGID_4_" gradientUnits="userSpaceOnUse" x1="609.8772" y1="365.6129" x2="609.8772" y2="400.6958">
			<stop  offset="0" style="stop-color:#00FFBB"/>
			<stop  offset="1" style="stop-color:#00DCBF"/>
		</linearGradient>
		<path fill="url(#SVGID_4_)" d="M581,365.6c0.5,25.4,20.6,45.6,46.1,46.1c15.5,0.3,15.4-23.7,0-24c-12.3-0.2-21.8-9.8-22.1-22.1
			C604.7,350.2,580.7,350.1,581,365.6L581,365.6z"/>
	</g>
</g>
<g>
	<g>
		<linearGradient id="SVGID_5_" gradientUnits="userSpaceOnUse" x1="626.937" y1="526.588" x2="519.6286" y2="526.588">
			<stop  offset="0" style="stop-color:#00FFBB"/>
			<stop  offset="1" style="stop-color:#00DCBF"/>
		</linearGradient>
		<path fill="url(#SVGID_5_)" d="M613.9,472.5c-0.2,25.3-9.8,49.7-27.6,67.7c-17.7,17.9-41.6,27.8-66.7,28c-15.4,0.1-15.5,24.1,0,24
			c49.7-0.3,93.6-31.9,111-78.3c4.9-13.2,7.2-27.4,7.3-41.4C638,457.1,614,457.1,613.9,472.5L613.9,472.5z"/>
	</g>
</g>
<g>
	<g>
		<path fill="#00DCBF" d="M518.4,568.5c-21.4,0-42.7,0-64.1,0c-15.4,0-15.5,24,0,24c21.4,0,42.7,0,64.1,0
			C533.8,592.5,533.8,568.5,518.4,568.5L518.4,568.5z"/>
	</g>
</g>
<g>
	<g>
		<path fill="#00FFBB" d="M520,373.7c24.8,0.2,48.8,9.8,66.4,27.5c17.6,17.6,27.3,41.6,27.5,66.4c0.1,15.4,24.1,15.5,24,0
			c-0.3-49.4-31.3-93.4-77.5-110.7c-12.9-4.8-26.7-7.1-40.4-7.2C504.6,349.6,504.6,373.6,520,373.7L520,373.7z"/>
	</g>
</g>
</svg>
