<?xml version="1.0" encoding="utf-8"?>
<!-- Generator: Adobe Illustrator 19.0.1, SVG Export Plug-In . SVG Version: 6.00 Build 0)  -->
<svg version="1.1" id="图层_1" xmlns="http://www.w3.org/2000/svg" xmlns:xlink="http://www.w3.org/1999/xlink" x="0px" y="0px"
	 viewBox="0 0 500 1000" style="enable-background:new 0 0 500 1000;" xml:space="preserve">
<style type="text/css">
	.st0{fill:#33CC99;}
	.st1{fill:#F15A24;}
</style>
<g>
	<g>
		<path class="st0" d="M159.5,248.8c15.4,15.2,30.7,30.3,46.1,45.5c5.4,5.3,10.7,10.7,16.1,15.9c15,14.3,38.1,14.3,53.1-0.1
			c31.7-30.5,62.4-62.4,93.5-93.5c12.6-12.6,25.3-25.3,37.9-37.9c6.8-6.8-3.8-17.4-10.6-10.6c-29.3,29.3-58.7,58.7-88,88
			c-13.7,13.7-27.5,27.5-41.2,41.2c-7.2,7.2-16.7,11.5-26.9,7.2c-7.2-3-13.2-10.8-18.6-16.1c-16.9-16.7-33.9-33.4-50.8-50.2
			C163.2,231.4,152.6,242,159.5,248.8L159.5,248.8z"/>
	</g>
</g>
<g>
	<g>
		<path class="st0" d="M411.4,236.6c4.6,60.3-24,119.2-75.5,151.4c-50.8,31.8-116.8,32.6-168.4,2.1c-51.3-30.4-82-87.7-79.3-147.2
			c2.6-59,38.6-112.5,91.5-138.3c58.5-28.5,131.1-17.8,179.2,26c6.1,5.6,11.8,11.6,17,17.9c6.2,7.4,16.7-3.2,10.6-10.6
			c-45.8-55.5-123.2-78.2-191.7-55.6c-60.6,20-107.5,72.9-118.8,135.9c-11.5,63.8,12.9,130.7,64,170.9
			c51.7,40.7,122.4,49.6,182.5,22.9c58.8-26.1,99-84.3,104-148.2c0.7-9.1,0.6-18.2-0.1-27.3C425.7,227,410.7,226.9,411.4,236.6
			L411.4,236.6z"/>
	</g>
</g>
</svg>
