<?xml version="1.0" encoding="utf-8"?>
<!-- Generator: Adobe Illustrator 19.0.1, SVG Export Plug-In . SVG Version: 6.00 Build 0)  -->
<svg version="1.1" id="图层_1" xmlns="http://www.w3.org/2000/svg" xmlns:xlink="http://www.w3.org/1999/xlink" x="0px" y="0px"
	 viewBox="0 0 500 995.2" style="enable-background:new 0 0 500 995.2;" xml:space="preserve">
<style type="text/css">
	.st0{fill:#33CC99;}
	.st1{fill:#F15A24;}
</style>
<g>
	<g>
		<path class="st1" d="M201.2,404.5C143.2,385.9,100.1,336,90,275.9c-9.9-58.9,15.5-121.1,63.7-156.3
			c48.3-35.3,113.5-41.7,167.4-15.2c53.1,26.1,88.7,80.3,90.8,139.4c2.4,64.2-34.5,124.7-92.3,152.5c-7,3.4-14.3,6.1-21.7,8.4
			c-9.2,2.9-5.3,17.4,4,14.5c67.8-21.2,117-81.3,124.2-152c6.6-64-24.1-128.1-77.2-164.1C294.6,66.4,222.5,63.4,165,94.7
			c-57.8,31.5-94.2,95-92,160.8c2.1,64.4,40.3,124.6,98.3,153.1c8.4,4.1,17,7.6,25.9,10.4C206.4,421.9,210.4,407.4,201.2,404.5
			L201.2,404.5z"/>
	</g>
</g>
<g>
	<g>
		<path class="st1" d="M241.9,146.7c0,22.2,0,44.5,0,66.7c0,35.6,0,71.3,0,106.9c0,8.2,0,16.3,0,24.5c0,9.7,15,9.7,15,0
			c0-22.2,0-44.5,0-66.7c0-35.6,0-71.3,0-106.9c0-8.2,0-16.3,0-24.5C256.9,137,241.9,137,241.9,146.7L241.9,146.7z"/>
	</g>
</g>
<circle class="st1" cx="249.4" cy="413.4" r="10"/>
</svg>
