<?xml version="1.0" encoding="utf-8"?>
<!-- Generator: Adobe Illustrator 19.0.0, SVG Export Plug-In . SVG Version: 6.00 Build 0)  -->
<svg version="1.1" id="图层_1" xmlns="http://www.w3.org/2000/svg" xmlns:xlink="http://www.w3.org/1999/xlink" x="0px" y="0px"
	 viewBox="0 0 500 500" style="enable-background:new 0 0 500 500;" xml:space="preserve">
<style type="text/css">
	.st0{fill:none;stroke:#33CC99;stroke-width:10;stroke-linecap:round;stroke-miterlimit:10;}
	.st1{fill:none;stroke:#33CC99;stroke-width:10;stroke-linecap:round;stroke-miterlimit:10;stroke-dasharray:8.0125,30.047;}
	.st2{fill:#FFFFFF;stroke:#33CC99;stroke-width:10;stroke-linecap:round;stroke-miterlimit:10;}
	.st3{fill:#EAEAEA;}
	.st4{fill:#FFFFFF;}
	.st5{fill:#FFFFFF;stroke:#EAEAEA;stroke-width:10;stroke-miterlimit:10;}
	.st6{fill:none;stroke:#FFFFFF;stroke-width:10;stroke-miterlimit:10;}
</style>
<g>
	<g>
		<line class="st0" x1="250" y1="-73.5" x2="250" y2="-69.5"/>
		<line class="st1" x1="250" y1="-39.5" x2="250" y2="554.5"/>
		<line class="st0" x1="250" y1="569.5" x2="250" y2="573.5"/>
	</g>
</g>
<circle class="st2" cx="250" cy="250" r="144.5"/>
<circle class="st3" cx="250" cy="249.8" r="129.2"/>
<path class="st4" d="M170.3,346l43.8-74.4c1-1.6,2.7-2.6,4.6-2.6h57.9c1.6,0,3.2,0.7,4.1,2l55.5,68.4c1.8,2.2,1.5,5.4-0.5,7.3
	c-12.5,11.4-46,33.3-85.8,32.6c-43.7,1-68.6-17.9-78.6-26.6C169.4,351.1,168.9,348.2,170.3,346z"/>
<circle class="st5" cx="248.5" cy="230.2" r="63.1"/>
<circle class="st3" cx="218.2" cy="197.8" r="4.8"/>
<circle class="st3" cx="281.7" cy="197.8" r="4.8"/>
<path class="st6" d="M187.4,322.1c0-25.4-13.4-46.2-28.6-46.2"/>
<path class="st6" d="M309.8,312.9c18.1-18.1,24-41.3,13.3-52.1"/>
<circle class="st6" cx="325.2" cy="256.8" r="4.8"/>
<circle class="st6" cx="158.8" cy="280.8" r="4.8"/>
</svg>
