<?xml version="1.0" encoding="utf-8"?>
<!-- Generator: Adobe Illustrator 19.0.0, SVG Export Plug-In . SVG Version: 6.00 Build 0)  -->
<svg version="1.1" id="图层_1" xmlns="http://www.w3.org/2000/svg" xmlns:xlink="http://www.w3.org/1999/xlink" x="0px" y="0px"
	 viewBox="746.5 246.5 503.5 503.5" style="enable-background:new 746.5 246.5 503.5 503.5;" xml:space="preserve">
<style type="text/css">
	.st0{fill:#FFFFFF;}
	.st1{fill:#F7F8F8;}
	.st2{fill:#33CC99;stroke:#33CC99;stroke-miterlimit:10;}
	.st3{fill:#33CC99;}
	.st4{fill:#F7F8F8;stroke:#F7F8F8;stroke-miterlimit:10;}
	.st5{fill:#33CC99;stroke:#FFFFFF;stroke-miterlimit:10;}
	.st6{fill:none;stroke:#33CC99;stroke-miterlimit:10;}
	.st7{fill:none;stroke:#33CC99;stroke-width:2;stroke-miterlimit:10;}
</style>
<g id="图层_1_4_">
	<g>
		<path class="st0" d="M1124.4,374.1c7.1,5.8,13.7,12,19.9,18.6c33.5,35.8,54,83.8,54,136.7c0,41.4-12.6,79.8-34.1,111.7"/>
		<path class="st0" d="M872.8,373.6c34.3-27.7,77.9-44.2,125.4-44.2c47.8,0,91.7,16.7,126.2,44.8L872.8,373.6
			c-45.5,36.7-74.6,92.9-74.6,155.9c0,39.3,11.4,76.1,31,107"/>
	</g>
	<g>
		<path class="st0" d="M1164.2,641.2c-35.9,53.3-96.9,88.4-166,88.4c-71.2,0-133.6-37.2-169.1-93.1"/>
	</g>
</g>
<g>
	<path class="st0" d="M1130.4,396.2c-1.7-1.9-8.8-10-7.8-21c1.1-11.9,10.9-20.3,19.1-23.4c8.8-3.3,12.5,0.7,21.6-3
		c7.6-3.1,16.4-10.7,15.6-15c-2.5-12.3-86.2-0.6-178.9,0c-64.9,0.4-111,6.4-144.4,2.2"/>
	<g>
		<path class="st0" d="M1131.5,395.1c-3.9-4.3-6.8-9.8-7.3-15.6c-0.8-8.1,3.1-15.6,9.1-20.8c2.6-2.3,5.7-4.2,8.9-5.4
			c3.8-1.4,7.4-1.3,11.4-1.3c7.4,0.2,14-2.9,19.8-7.5c3.1-2.4,8.8-7.4,6.7-11.9c-0.8-1.8-2.7-2.8-4.4-3.4
			c-6.9-2.7-15.3-2.4-22.6-2.4c-30.1-0.2-60.3,2.4-90.4,3.8c-38.4,1.8-76.8,1.6-115.3,3.2c-27.7,1.2-55.8,3.7-83.5,1.6
			c-2.8-0.2-5.5-0.5-8.3-0.8c-1.9-0.2-1.9,2.8,0,3c26,3.3,52.6,1,78.7-0.2c37.3-1.7,74.5-1.6,111.8-3.1c32.1-1.2,64.2-3.7,96.4-4.4
			c9.2-0.2,18.7-0.6,27.8,1c2.1,0.4,4.8,0.8,6.5,2.2c3.1,2.7-4.1,8.3-6.2,9.9c-3.3,2.4-7,4.5-11.1,5.5c-3.6,0.8-7.2,0.2-10.8,0.4
			c-6.4,0.2-12.4,3.3-17.2,7.4c-11.1,9.4-13.4,24.4-5.5,36.5c1,1.6,2.2,3,3.4,4.4C1130.6,398.7,1132.8,396.5,1131.5,395.1
			L1131.5,395.1z"/>
	</g>
</g>
<g>
	<path class="st0" d="M866.8,396.2c1.7-1.9,8.8-10,7.8-21c-1.1-11.9-10.9-20.3-19.1-23.4c-8.8-3.3-12.5,0.7-21.6-3
		c-7.6-3.1-16.4-10.7-15.6-15c2.5-12.3,86.2-0.6,178.9,0c64.9,0.4,91.4,16.9,124.9,12.6"/>
	<g>
		<path class="st0" d="M867.9,397.3c8.3-9.2,11.2-22.5,4.4-33.5c-3.4-5.5-8.6-9.9-14.5-12.6c-3.2-1.4-6.5-2.2-10-2.3
			c-3.6-0.1-7,0.4-10.5-0.5c-4.2-1.1-8.3-3.5-11.7-6.3c-2-1.6-5.9-4.7-5.9-7.6c0-1.6,1.9-2.3,3.5-2.8c7.6-2.4,16.2-2,24-2
			c30.7,0.1,61.5,2.7,92.2,4c19.6,0.8,39.3,1.4,58.9,1.6c16.8,0.2,33.5,1.4,50.1,4c21.7,3.3,43.7,10.1,65.9,9.2
			c2.6-0.1,5.1-0.3,7.7-0.6c1.9-0.2,1.9-3.3,0-3c-21.9,2.7-43.6-3.6-64.9-7.2c-15.4-2.7-30.9-4.4-46.5-5.1
			c-19.8-0.8-39.6-0.7-59.4-1.4c-32.5-1.3-64.9-3.8-97.4-4.4c-9.2-0.2-18.8-0.5-27.9,1.2c-4.6,0.8-11.1,3.1-8.5,9.1
			c2.5,5.9,9.7,10.5,15.3,12.9c3.4,1.4,6.8,2.1,10.5,2.1c3.9-0.1,7.6-0.2,11.3,1c6.8,2.4,12.9,7.6,16.2,14
			c3.7,7.3,2.9,15.8-1.1,22.8c-1.1,1.9-2.4,3.6-3.8,5.2C864.5,396.5,866.6,398.7,867.9,397.3L867.9,397.3z"/>
	</g>
</g>
<g>
	<g>
		<path class="st1" d="M1124.2,433c-0.2,6-4.8,10.6-10.8,10.8c-1.9,0.1-1.9,3.1,0,3c7.7-0.2,13.6-6.2,13.8-13.8
			C1127.3,431,1124.2,431,1124.2,433L1124.2,433z"/>
	</g>
</g>
<g>
	<g>
		<path class="st1" d="M1099.6,433c0.2,7.7,6.2,13.6,13.8,13.8c1.9,0.1,1.9-3,0-3c-6-0.2-10.6-4.8-10.8-10.8
			C1102.6,431,1099.5,431,1099.6,433L1099.6,433z"/>
	</g>
</g>
<g>
	<g>
		<path class="st1" d="M1072.3,433c-0.2,6-4.8,10.6-10.8,10.8c-1.9,0.1-1.9,3.1,0,3c7.7-0.2,13.6-6.2,13.8-13.8
			C1075.4,431,1072.3,431,1072.3,433L1072.3,433z"/>
	</g>
</g>
<g>
	<g>
		<path class="st1" d="M1047.7,433c0.2,7.7,6.2,13.6,13.8,13.8c1.9,0.1,1.9-3,0-3c-6-0.2-10.6-4.8-10.8-10.8
			C1050.7,431,1047.6,431,1047.7,433L1047.7,433z"/>
	</g>
</g>
<g>
	<g>
		<path class="st1" d="M1047,433c-0.2,6-4.8,10.6-10.8,10.8c-1.9,0.1-1.9,3.1,0,3c7.7-0.2,13.6-6.2,13.8-13.8
			C1050.1,431,1047,431,1047,433L1047,433z"/>
	</g>
</g>
<g>
	<g>
		<path class="st1" d="M1022.4,433c0.2,7.7,6.2,13.6,13.8,13.8c1.9,0.1,1.9-3,0-3c-6-0.2-10.6-4.8-10.8-10.8
			C1025.4,431,1022.3,431,1022.4,433L1022.4,433z"/>
	</g>
</g>
<g>
	<g>
		<path class="st1" d="M1022.3,433c-0.2,6-4.8,10.6-10.8,10.8c-1.9,0.1-1.9,3.1,0,3c7.7-0.2,13.6-6.2,13.8-13.8
			C1025.4,431,1022.3,431,1022.3,433L1022.3,433z"/>
	</g>
</g>
<g>
	<g>
		<path class="st1" d="M997.7,433c0.2,7.7,6.2,13.6,13.8,13.8c1.9,0.1,1.9-3,0-3c-6-0.2-10.6-4.8-10.8-10.8
			C1000.6,431,997.6,431,997.7,433L997.7,433z"/>
	</g>
</g>
<g>
	<g>
		<path class="st1" d="M967.8,433c-0.2,6-4.8,10.6-10.8,10.8c-1.9,0.1-1.9,3.1,0,3c7.7-0.2,13.6-6.2,13.8-13.8
			C970.9,431,967.8,431,967.8,433L967.8,433z"/>
	</g>
</g>
<g>
	<g>
		<path class="st1" d="M943.3,433c0.2,7.7,6.2,13.6,13.8,13.8c1.9,0.1,1.9-3,0-3c-6-0.2-10.6-4.8-10.8-10.8
			C946.2,431,943.2,431,943.3,433L943.3,433z"/>
	</g>
</g>
<g>
	<g>
		<path class="st1" d="M916,433c-0.2,6-4.8,10.6-10.8,10.8c-1.9,0.1-1.9,3.1,0,3c7.7-0.2,13.6-6.2,13.8-13.8
			C919,431,916,431,916,433L916,433z"/>
	</g>
</g>
<g>
	<g>
		<path class="st1" d="M891.4,433c0.2,7.7,6.2,13.6,13.8,13.8c1.9,0.1,1.9-3,0-3c-6-0.2-10.6-4.8-10.8-10.8
			C894.3,431,891.3,431,891.4,433L891.4,433z"/>
	</g>
</g>
<g>
	<g>
		<path class="st1" d="M890.6,433c-0.2,6-4.8,10.6-10.8,10.8c-1.9,0.1-1.9,3.1,0,3c7.7-0.2,13.6-6.2,13.8-13.8
			C893.7,431,890.6,431,890.6,433L890.6,433z"/>
	</g>
</g>
<g>
	<g>
		<path class="st1" d="M866.1,433c0.2,7.7,6.2,13.6,13.8,13.8c1.9,0.1,1.9-3,0-3c-6-0.2-10.6-4.8-10.8-10.8
			C869,431,866,431,866.1,433L866.1,433z"/>
	</g>
</g>
<g>
	<g>
		<path class="st0" d="M878.7,378.8c0.2-10.9,8.8-19.5,19.7-19.7c1.9-0.1,1.9-3.1,0-3c-12.6,0.2-22.5,10.1-22.7,22.7
			C875.7,380.8,878.7,380.8,878.7,378.8L878.7,378.8z"/>
	</g>
</g>
<g>
	<g>
		<path class="st1" d="M1099.3,628.7c-0.3,31.7-26.1,57.5-57.8,57.8c-2.8,0-2.8,4.4,0,4.4c34.2-0.3,61.8-28.1,62.2-62.2
			C1103.7,625.9,1099.3,625.9,1099.3,628.7L1099.3,628.7z"/>
	</g>
</g>
<g>
	<g>
		<path class="st1" d="M847.2,518.9c0.2,59.5,25.6,128,82.6,155c13.4,6.4,28.1,9.8,43,9.9c2.8,0,2.8-4.4,0-4.4
			c-58.6-0.3-99.1-52.6-113.8-104.7c-5.1-18.1-7.5-37-7.5-55.8C851.6,516.1,847.2,516.1,847.2,518.9L847.2,518.9z"/>
	</g>
</g>
<g>
	<g>
		<path class="st1" d="M934.1,584.8c-2.8,32.3,15.6,68.3,50.7,71.9c2.8,0.3,2.8-4.1,0-4.4c-32.7-3.5-48.8-37.9-46.3-67.6
			C938.6,582,934.3,582.1,934.1,584.8L934.1,584.8z"/>
	</g>
</g>
<g>
	<path class="st1" d="M830.3,558.5c0-15.3,12.4-27.6,27.6-27.6v27.6H830.3z"/>
	<g>
		<path class="st0" d="M832.5,558.5c0.3-14.1,11.3-25.2,25.5-25.5c-0.7-0.7-1.5-1.5-2.2-2.2c0,9.2,0,18.5,0,27.6
			c0.7-0.7,1.5-1.5,2.2-2.2c-9.2,0-18.5,0-27.6,0c-2.8,0-2.8,4.4,0,4.4c9.2,0,18.5,0,27.6,0c1.2,0,2.2-1,2.2-2.2
			c0-9.2,0-18.5,0-27.6c0-1.1-1-2.2-2.2-2.2c-16.5,0.3-29.5,13.3-29.8,29.8C828,561.3,832.4,561.3,832.5,558.5z"/>
	</g>
</g>
<g>
	<path class="st1" d="M865.5,565.1c17.1,0,31,13.9,31,31h-31V565.1z"/>
	<g>
		<path class="st0" d="M865.5,567.3c15.9,0.3,28.4,12.8,28.8,28.8c0.7-0.7,1.5-1.5,2.2-2.2c-10.3,0-20.7,0-31,0
			c0.7,0.7,1.5,1.5,2.2,2.2c0-10.3,0-20.7,0-31c0-2.8-4.4-2.8-4.4,0c0,10.3,0,20.7,0,31c0,1.2,1,2.2,2.2,2.2c10.3,0,20.7,0,31,0
			c1.1,0,2.2-1,2.2-2.2c-0.3-18.3-14.8-32.8-33.1-33.1C862.6,562.9,862.6,567.3,865.5,567.3z"/>
	</g>
</g>
<g>
	<path class="st1" d="M942.1,595.4c11.8-2,22.9,5.9,24.9,17.7l-21.4,3.7L942.1,595.4z"/>
	<g>
		<path class="st0" d="M942.7,597.5c10.8-1.6,20.2,5.7,22.3,16.2c0.5-0.9,1-1.8,1.5-2.7c-7.1,1.2-14.2,2.4-21.4,3.7
			c0.9,0.5,1.8,1,2.7,1.5c-1.2-7.1-2.4-14.2-3.7-21.4c-0.4-2.8-4.7-1.6-4.2,1.1c1.2,7.1,2.4,14.2,3.7,21.4c0.2,1.2,1.7,1.7,2.7,1.5
			c7.1-1.2,14.2-2.4,21.4-3.7c1.2-0.2,1.7-1.7,1.5-2.7c-2.6-13.1-14.6-21.1-27.6-19.3C938.8,593.6,940,597.9,942.7,597.5z"/>
	</g>
</g>
<g>
	<path class="st1" d="M952.4,648.5c1.8-9,10.6-14.7,19.7-12.9l-3.4,16.3L952.4,648.5z"/>
	<g>
		<path class="st0" d="M954.5,649c1.9-7.8,9-12.7,17-11.4c-0.5-0.9-1-1.8-1.5-2.7c-1.1,5.4-2.3,10.9-3.4,16.3c0.9-0.5,1.8-1,2.7-1.5
			c-5.4-1.1-10.9-2.3-16.3-3.4c-2.7-0.6-3.9,3.7-1.1,4.2c5.4,1.1,10.9,2.3,16.3,3.4c1.1,0.3,2.4-0.3,2.7-1.5
			c1.1-5.4,2.3-10.9,3.4-16.3c0.3-1-0.3-2.4-1.5-2.7c-10.3-1.8-19.9,4.2-22.3,14.4C949.6,650.6,953.9,651.8,954.5,649z"/>
	</g>
</g>
<g>
	<path class="st1" d="M931.7,630.2c-2.5-4.2-1.1-9.7,3.1-12.2l4.5,7.7L931.7,630.2z"/>
	<g>
		<path class="st0" d="M933.6,629.1c-1.8-3.3-0.9-7.1,2.3-9.2c-1-0.3-2-0.5-3-0.8c1.5,2.5,3.1,5.1,4.5,7.7c0.3-1,0.5-2,0.8-3
			c-2.5,1.5-5.1,3.1-7.7,4.5c-2.4,1.4-0.2,5.2,2.2,3.7c2.5-1.5,5.1-3.1,7.7-4.5c1-0.6,1.4-1.9,0.8-3c-1.5-2.5-3.1-5.1-4.5-7.7
			c-0.6-1-2-1.4-3-0.8c-5.2,3.3-6.9,9.8-3.8,15.2C931.1,633.7,934.9,631.6,933.6,629.1z"/>
	</g>
</g>
<g>
	<path class="st1" d="M893.5,633.8c13.7-9.6,32.5-6.2,42.1,7.5l-24.8,17.3L893.5,633.8z"/>
	<g>
		<path class="st0" d="M894.5,635.7c12.8-8.6,29.9-5.9,39.1,6.7c0.3-1,0.5-2,0.8-3c-8.3,5.8-16.6,11.5-24.8,17.3c1,0.3,2,0.5,3,0.8
			c-5.8-8.3-11.5-16.6-17.3-24.8c-1.6-2.3-5.4-0.1-3.7,2.2c5.8,8.3,11.5,16.6,17.3,24.8c0.6,0.9,1.9,1.5,3,0.8
			c8.3-5.8,16.6-11.5,24.8-17.3c0.9-0.6,1.5-2,0.8-3c-10.5-14.4-30.2-18.2-45.1-8.3C890,633.5,892.2,637.2,894.5,635.7z"/>
	</g>
</g>
<g>
	<path class="st1" d="M1090.5,624.7c16.7-0.7,30.8,12.3,31.4,28.9l-30.2,1.2L1090.5,624.7z"/>
	<g>
		<path class="st0" d="M1090.5,626.9c15.4-0.3,28.3,11.2,29.2,26.8c0.7-0.7,1.5-1.5,2.2-2.2c-10,0.4-20.1,0.8-30.2,1.2
			c0.7,0.7,1.5,1.5,2.2,2.2c-0.4-10-0.8-20.1-1.2-30.2c-0.1-2.8-4.4-2.8-4.4,0c0.4,10,0.8,20.1,1.2,30.2c0.1,1.1,1,2.3,2.2,2.2
			c10-0.4,20.1-0.8,30.2-1.2c1.1-0.1,2.3-1,2.2-2.2c-1-17.9-15.7-31.6-33.6-31.1C1087.6,622.5,1087.6,626.9,1090.5,626.9z"/>
	</g>
</g>
<g>
	<path class="st1" d="M1054.1,671.1c4.4-7.8,14.1-10.5,21.9-6.3l-7.8,14L1054.1,671.1z"/>
	<g>
		<path class="st0" d="M1055.9,672.1c4-6.6,11.9-9,18.9-5.5c-0.3-1-0.5-2-0.8-3c-2.6,4.7-5.2,9.4-7.8,14c1-0.3,2-0.5,3-0.8
			c-4.7-2.6-9.4-5.2-14-7.8c-2.4-1.4-4.6,2.4-2.2,3.7c4.7,2.6,9.4,5.2,14,7.8c1,0.5,2.4,0.3,3-0.8c2.6-4.7,5.2-9.4,7.8-14
			c0.5-1,0.3-2.4-0.8-3c-9.1-4.6-19.5-1.7-24.8,7C1050.7,672.4,1054.5,674.6,1055.9,672.1z"/>
	</g>
</g>
<g>
	<path class="st1" d="M865.8,641.5c-4.6-9.8-0.4-21.4,9.2-26l8.4,17.6L865.8,641.5z"/>
	<g>
		<path class="st0" d="M867.8,640.4c-3.9-8.9,0-18.7,8.5-23c-1-0.3-2-0.5-3-0.8c2.8,5.8,5.6,11.8,8.4,17.6c0.3-1,0.5-2,0.8-3
			c-5.8,2.8-11.8,5.6-17.6,8.4c-2.5,1.2-0.3,5,2.2,3.7c5.8-2.8,11.8-5.6,17.6-8.4c1.1-0.5,1.2-2,0.8-3c-2.8-5.8-5.6-11.8-8.4-17.6
			c-0.5-1.1-2-1.3-3-0.8c-10.8,5.6-14.9,18-10,29C865.1,645.2,868.8,643,867.8,640.4z"/>
	</g>
</g>
<path class="st2" d="M1125.4,585.4c0.8,0.3,0.6,1.4-0.3,1.4c-6.8-0.1-19.9-1.5-31.1-11c-9.2-7.9-12.7-17.3-13.9-22.7
	c-0.2-0.8,1-1.3,1.5-0.6c7.3,9.7,17.5,23.3,35.3,31.4C1119.1,585.1,1123.1,584.6,1125.4,585.4z"/>
<polygon class="st3" points="1090.4,562.2 1095,570.1 1112.5,582.8 1112.5,559.3 1104,553.4 "/>
<polygon class="st1" points="1085.6,553.1 1086.2,556.1 1082.4,554.9 "/>
<path class="st3" d="M1107.5,536.5c-5.9-4.7-13.3-4.9-19.7-1.5c-7.4,4-9.1,12.6-8.3,17.9c0.7,4.4,3.7,7,9.7,13.2
	c7,7.2,17.6,18.5,25.9,18.8c2.1,0.1,1.4,1.9,3.5,0c4.5-3.8,1.8-21.6-6-33.6C1111.2,546.6,1108.9,541.3,1107.5,536.5z"/>
<circle class="st4" cx="1099.5" cy="543.5" r="1.9"/>
<g>
	<path class="st5" d="M1086.1,566.2c0,0,0.1,0,0.3,0.2c0.1,0.1,0.5,0.3,0.8,0.5c0.3,0.2,0.7,0.5,1.1,0.7c0.3,0.1,0.7,0.4,1.1,0.6
		c0.1,0.1,0.3,0.2,0.5,0.3c0.2,0.1,0.3,0.2,0.5,0.3c0.3,0.2,0.6,0.4,0.9,0.6c0.3,0.2,0.5,0.4,0.7,0.6c0.1,0.1,0.2,0.2,0.3,0.3
		c0.1,0.1,0.2,0.2,0.2,0.3c0.1,0.1,0.1,0.2,0.2,0.4c0.1,0.1,0.1,0.2,0.2,0.4c0.1,0.2,0.1,0.2,0.1,0.4c0.1,0.2,0.1,0.3,0.1,0.5
		c0.1,0.4,0.1,0.7,0.2,1.1c0,0.2,0.1,0.4,0.2,0.6s0.1,0.5,0.2,0.7c0.2,0.5,0.3,0.9,0.5,1.4c0.2,0.4,0.4,1,0.6,1.3
		c0.2,0.4,0.4,0.7,0.5,0.9c0.2,0.3,0.2,0.4,0.2,0.4l0.2,0.8c0,0-0.2,0-0.6,0c-0.1,0.1-0.4,0-0.7,0c-0.3,0-0.5-0.1-0.9-0.2
		c-0.3-0.1-0.6-0.3-1-0.5c-0.3-0.2-0.8-0.5-1.1-0.9c-0.2-0.2-0.4-0.4-0.6-0.6s-0.4-0.4-0.6-0.6c-0.2-0.2-0.4-0.5-0.6-0.7
		s-0.3-0.5-0.5-0.7c-0.2-0.3-0.3-0.5-0.5-0.8s-0.3-0.5-0.4-0.8c-0.3-0.5-0.6-1.1-0.8-1.6s-0.4-1-0.6-1.5s-0.3-1-0.5-1.4
		c-0.2-0.5-0.2-0.8-0.3-1.2c-0.1-0.4-0.1-0.6-0.2-0.9c-0.1-0.5-0.2-0.8-0.2-0.8L1086.1,566.2z"/>
</g>
<circle class="st6" cx="1078.4" cy="522.8" r="3.4"/>
<circle class="st6" cx="1077.7" cy="477" r="6.9"/>
<g>
	<path class="st3" d="M1088,533.4c0,0,0.1,0.1,0.3,0.3c0.1,0.1,0.2,0.2,0.2,0.4c0.1,0.2,0.1,0.4,0.1,0.6c0,0.2,0,0.5,0,0.7
		c0,0.2-0.1,0.5-0.2,0.7s-0.3,0.5-0.4,0.7c-0.2,0.2-0.4,0.4-0.6,0.6c-0.2,0.2-0.5,0.3-0.8,0.4s-0.5,0.2-0.8,0.2s-0.5,0-0.8,0
		c-0.2,0-0.5-0.1-0.7-0.2s-0.4-0.2-0.5-0.3c-0.1-0.1-0.3-0.2-0.3-0.3c-0.2-0.2-0.2-0.4-0.2-0.4v-0.2c0,0,0.4,0,1,0s1.3-0.3,1.9-0.8
		c0.6-0.4,1.1-1.1,1.3-1.6c0.2-0.5,0.3-0.9,0.3-0.9L1088,533.4z"/>
</g>
<path class="st2" d="M1113.2,591.5c-0.2,0.9,1.1,1.3,1.6,0.5c3.7-5.6,9.7-17.2,6.6-31.6c-2.5-11.9-9.8-19.7-14.4-23.7
	c-0.7-0.6-1.8,0.1-1.4,0.9c5.4,11.3,12.8,27.5,10.9,46.6C1116.3,586.7,1113.7,589.1,1113.2,591.5z"/>
<path class="st7" d="M1114.2,592.4c0-3.5,5.2-6.3,11.7-6.3"/>
</svg>
