<?xml version="1.0" encoding="utf-8"?>
<!-- Generator: Adobe Illustrator 19.0.0, SVG Export Plug-In . SVG Version: 6.00 Build 0)  -->
<svg version="1.1" id="图层_1" xmlns="http://www.w3.org/2000/svg" xmlns:xlink="http://www.w3.org/1999/xlink" x="0px" y="0px"
	 viewBox="250 -16.7 1000 804.3" style="enable-background:new 250 -16.7 1000 804.3;" xml:space="preserve">
<style type="text/css">
	.st0{fill:#FFFFFF;}
	.st1{fill:none;stroke:#33CC99;stroke-width:20;stroke-miterlimit:10;}
	.st2{fill:none;stroke:#33CC99;stroke-width:2;stroke-miterlimit:10;}
	.st3{fill:#FFFFFF;stroke:#33CC99;stroke-width:2;stroke-miterlimit:10;}
	.st4{fill:#33CC99;stroke:#33CC99;stroke-miterlimit:10;}
	.st5{fill:#223135;}
	.st6{fill:#FFFFFF;stroke:#33CC99;stroke-miterlimit:10;}
	.st7{fill:#33CC99;stroke:#33CC99;stroke-width:2;stroke-miterlimit:10;}
	.st8{fill:#223135;stroke:#FFFFFF;stroke-width:3;stroke-miterlimit:10;}
	.st9{fill:#F7CA18;stroke:#223135;stroke-miterlimit:10;}
	.st10{fill:#EF4836;stroke:#223135;stroke-miterlimit:10;}
	.st11{fill:#FFFFFF;stroke:#223135;stroke-miterlimit:10;}
	.st12{fill:none;stroke:#FFFFFF;stroke-width:10;stroke-miterlimit:10;}
	.st13{fill:none;stroke:#223135;stroke-width:2;stroke-miterlimit:10;}
</style>
<path class="st0" d="M931.2,502H577.6c-41.9,0-76.2-34.1-76.2-75.9V73c0-41.7,34.3-75.9,76.2-75.9h353.6c41.9,0,76.2,34.1,76.2,75.9
	v353.2C1007.4,467.9,973.1,502,931.2,502z"/>
<path class="st1" d="M555.7,120.2c0-37.6,30.6-68,68.3-68"/>
<path class="st1" d="M624,442.1c-37.8,0-68.3-30.5-68.3-68"/>
<path class="st1" d="M877.1,52.2c37.8,0,68.3,30.5,68.3,68"/>
<path class="st2" d="M501.2,393.6c26.2-36.1,52.2-104.4,33.4-143.6c-0.9-1.9-3-3-4.5-3.9"/>
<ellipse class="st3" cx="540.8" cy="226.4" rx="23.3" ry="23.2"/>
<path class="st2" d="M1007.7,235.5c-10.4-14.7-22.9-27.1-39.3-33.8"/>
<ellipse class="st3" cx="959" cy="222.9" rx="23.3" ry="23.2"/>
<path class="st4" d="M870.5,345.1H630.7c-22.4,0-40.8-17.6-40.8-39.2V188c0-21.6,18.4-39.2,40.8-39.2h239.8
	c22.4,0,40.8,17.6,40.8,39.2v117.9C911.3,327.4,892.9,345.1,870.5,345.1z"/>
<path class="st5" d="M870,145.2h-31.2c-5.7,0-10.3-3.5-10.3-7.7l0,0c0-4.2,4.7-7.7,10.3-7.7H870c5.7,0,10.3,3.5,10.3,7.7l0,0
	C880.4,141.8,875.7,145.2,870,145.2z"/>
<path class="st6" d="M764.5,301.7h-27.9c-30.7,0-55.9-25-55.9-55.6l0,0c0-30.6,25.1-55.6,55.9-55.6h27.9c30.7,0,55.9,25,55.9,55.6
	l0,0C820.4,276.6,795.3,301.7,764.5,301.7z"/>
<ellipse class="st7" cx="750.6" cy="246" rx="44.2" ry="44"/>
<ellipse class="st8" cx="750.6" cy="246" rx="39.5" ry="39.4"/>
<path class="st9" d="M849.8,142.7h-7.9c-3.3,0-5.9-2.3-5.9-5l0,0c0-2.8,2.7-5,5.9-5h7.9c3.3,0,5.9,2.3,5.9,5l0,0
	C855.7,140.4,853,142.7,849.8,142.7z"/>
<ellipse class="st10" cx="867.1" cy="137.7" rx="5" ry="5"/>
<ellipse class="st11" cx="772" cy="263.5" rx="5" ry="5"/>
<path class="st1" d="M945.9,374.1c0,37.6-30.6,68-68.3,68"/>
<path class="st12" d="M724.1,243.4c0-13.1,10.6-23.6,23.7-23.6"/>
<line class="st13" x1="716.4" y1="240.2" x2="731.2" y2="240.2"/>
</svg>
