<?xml version="1.0" encoding="utf-8"?>
<!-- Generator: Adobe Illustrator 19.0.0, SVG Export Plug-In . SVG Version: 6.00 Build 0)  -->
<svg version="1.1" id="图层_1" xmlns="http://www.w3.org/2000/svg" xmlns:xlink="http://www.w3.org/1999/xlink" x="0px" y="0px"
	 viewBox="0 0 500 500" style="enable-background:new 0 0 500 500;" xml:space="preserve">
<style type="text/css">
	.st0{fill:#EAEAEA;}
	.st1{fill:#FFFFFF;}
	.st2{fill:#FFFFFF;stroke:#EAEAEA;stroke-width:10;stroke-miterlimit:10;}
	.st3{fill:none;stroke:#FFFFFF;stroke-width:10;stroke-miterlimit:10;}
</style>
<circle class="st0" cx="250" cy="248.9" r="250"/>
<path class="st1" d="M95.8,435.2l84.8-144c1.9-3.1,5.2-5.1,9-5.1h112c3.1,0,6.1,1.4,8,3.9L417,422.4c3.5,4.2,3,10.5-1,14.1
	c-24.1,22-89.1,64.5-166,63.1c-84.5,1.9-132.8-34.7-152.1-51.4C94,444.9,93.1,439.4,95.8,435.2z"/>
<circle class="st2" cx="247" cy="211" r="122.1"/>
<circle class="st0" cx="188.5" cy="148.2" r="9.2"/>
<circle class="st0" cx="311.4" cy="148.2" r="9.2"/>
<path class="st3" d="M128.8,388.9c0-49.2-26-89.4-55.4-89.4"/>
<path class="st3" d="M365.8,371c35-35,46.4-80,25.8-100.8"/>
<circle class="st3" cx="395.6" cy="262.4" r="9.2"/>
<circle class="st3" cx="73.5" cy="308.9" r="9.2"/>
</svg>
